<svg width="125" height="190" viewBox="0 0 125 190" fill="none" xmlns="http://www.w3.org/2000/svg">
<path d="M112.521 52.2137L115.225 59.4656L113.769 68.3752L117.512 84.951L125 99.4548L123.128 105.049L115.641 103.599L107.529 97.1756L98.5857 92.2029L93.1781 84.1221L85.4825 78.5278L79.4509 77.6991L75.2912 80.5998L76.1231 91.374L72.3794 100.076L72.1714 102.148L76.1231 103.391L77.7871 106.292L76.7471 109.193L72.1714 112.301L64.0599 111.058L56.9884 113.13L56.7804 116.238L58.4443 119.139L58.6523 122.247L56.5724 131.985L55.9485 138.822L56.7804 146.074L55.9485 153.119L50.7488 158.299L47.213 164.1L49.2929 171.767L48.4609 174.46L47.8369 177.154L51.3727 183.37L52.4127 190L42.0133 182.955L33.6939 182.748L27.6623 180.262L21.4227 180.469L8.52747 182.955L2.07987 181.091L0 168.866L16.223 144.002L17.0549 136.336L13.9351 130.534L25.3744 97.1756L31.406 90.5452L33.2779 86.6085L34.7338 82.4646L36.8137 79.1493L38.0616 75.4198V71.2759L37.4376 66.9248V62.5735L36.1897 58.4296L34.5258 55.5289L35.9817 53.2497L37.4376 45.9977L35.3577 28.386L29.3261 22.9989L24.9584 21.9629L17.0549 18.0261L13.7271 15.1254L21.0067 5.8015L31.614 0.207147L32.6539 0.828714L33.0699 1.45028L40.5574 0.207147L48.0449 0L58.4443 7.66621L58.6523 16.9901L57.1963 27.1428L66.5557 31.7012L89.4343 32.1156L97.9617 36.0523L99.0017 41.4395L101.706 46.205L106.697 50.1417L112.521 52.2137Z" fill="white"/>
</svg>
