<?xml version="1.0" encoding="UTF-8" standalone="no"?>
<svg
  xmlns="http://www.w3.org/2000/svg"
  viewBox="0 0 744 600"
  width="100%"
  height="100%"
  style="color: white;">
  
  <path
     d="m 3.411651,463.64874 1.25,0.4 3.41,-0.43 1.94,0.89 3.46,-2.44 0,-1.61 0.41,-0.11 3.55,0.53 13.71,-0.19 1.06,-1.01 0.77,-3.95 2.08,-1.65 0.09,-2.35 1.36,-2.51 1.85,0.25 3.41,1.43 1.2,0.8 0.81,1.43 4.57,-0.48 -0.51,-1.45 1.59,-1.06 37.58,0.39 1.07,0.21 0.54,0.9 -2.73,2.88 -0.23,0.94 0.73,1.24 0.04,1.46 2.19,1.09 3.22,-2.16 3.45,-0.41 1.06,1.48 0.12,0.95 -1.12,1.06 -2.8,1.31 -0.56,1.03 0.22,0.7 0.92,0.74 2.77,0.77 1.13,1.31 0.58,0.14 1.12,-0.58 5.269999,0.65 0.35,1.25 -0.36,2.36 0,0 -9.529999,-1.15 -2.19,-0.67 -12.02,-1.84 -8.59,-0.46 -9.91,0.94 -15.11,0.16 -0.57,0.31 -0.19,1.32 -0.53,-0.1 0.24,0.34 -5.42,-0.82 -6.02,0.01 -21.6,0.73 -9.49,1.1 -0.36,-3.11 z"
     title="Lagos"
    fill="currentColor"
    stroke="#333"
    stroke-width="1"
     id="NG-LA" />
</svg>