<svg width="120" height="180" viewBox="0 0 120 180" fill="none" xmlns="http://www.w3.org/2000/svg">
<path d="M28.1276 46.786L36.2659 47.2492L42.6177 42.75L47.7785 36.0012L50.6898 33.5531L54.3288 32.693L58.3649 32.296L61.9378 30.6418L63.3272 29.12L64.2536 27.2674L65.5107 26.3411L67.3633 26.275L70.3407 23.5622L73.0535 20.3863L77.1557 19.46L81.4564 20.0555L84.897 21.5111L87.6759 23.9592L90.5871 25.878L94.0277 26.672L96.542 25.2163L98.3284 18.4675L101.107 11.5864L101.769 8.01347L101.703 4.57291L102.166 1.66165L103.886 1.39699L104.548 1.52933L105.143 1.99247L106.731 2.58797L108.385 2.85263L115.664 1.19851L118.575 1L118.31 1.66165L109.378 14.4976L107.988 17.4089L106.136 23.7607L104.416 33.4207L103.291 36.5967V37.2583L103.622 38.2508L103.688 38.8463L103.622 39.5741L102.828 41.2944L102.232 42.0222L101.174 42.8162L100.71 43.147L99.9825 43.544L99.0562 43.941L95.0863 44.4041L93.4322 44.9996L92.5721 46.786V47.7785L93.1676 49.4326L93.3661 50.4251L93.1676 51.6161L91.9766 53.4687L91.5796 54.5273L91.6458 55.6521L92.1751 56.5123L93.6307 58.0341L94.16 59.1589L94.0939 59.9528L93.5646 60.813L93.1014 62.0039L92.4397 65.4445L92.2413 68.7528L90.7856 72.3918L87.5436 73.649L83.5737 74.2444L80.1331 75.7662L79.4715 76.3617L78.0158 78.2143L77.4203 78.7436L77.0234 79.0745L74.1121 80.4639L73.7813 80.7286L73.3843 81.6549L73.649 81.7872L75.1046 81.9857L75.5677 83.0443L75.9647 84.5661L75.8985 86.5511L75.7001 87.5436L75.4354 88.4037L73.1196 92.5721L72.061 95.0202V97.0051L72.3918 98.8577L71.267 108.452L70.7377 110.635L69.6129 112.157L68.9512 112.422H68.3558L67.6941 112.289H66.9663L66.437 112.554L66.04 113.149L65.643 114.539L64.849 116.193L63.9889 117.185L58.828 119.898L58.1002 120.097L57.3063 119.964L55.7183 119.17L55.0566 119.038L54.1304 119.104L53.5349 119.435L52.9394 119.832L52.1454 120.229L51.4838 120.295L50.7559 120.163L49.3665 119.7L49.7635 120.427L50.9544 123.339L51.0868 124L51.1529 125.456L50.6898 125.919L49.168 126.978L48.771 127.441L48.5063 128.103L48.1093 128.698L47.5139 129.095L46.4552 129.227L44.5365 128.897L43.4117 129.36L42.2868 131.014L41.8899 133.197L42.0222 135.513L42.8162 139.615L42.75 140.608L42.6177 141.071L42.353 141.733L40.3019 144.644L40.0372 145.835V147.82L40.3019 149.738L40.6327 150.996L40.7651 151.856L40.5004 152.584L38.5816 154.568L33.6193 161.516L31.8328 164.824L31.502 165.883L31.3035 166.941L31.4358 168.066L32.1636 170.977L31.9652 172.036L31.3035 172.631L30.5095 173.161L29.1862 175.146L26.0765 178.255L26.0103 178.189L25.4148 175.609L24.1577 172.962L23.496 169.588V166.213L21.1141 160.391L16.2179 155.759L14.9608 154.238L13.2405 153.444L11.5864 154.171L10.6601 155.693L9.53527 157.083L8.21198 158.208L6.55786 158.075L5.23456 156.62L3.18347 153.047L1 147.621L1.46316 146.033L4.24209 142.791L7.48418 139.88L20.4525 124.265L23.8269 121.486L24.29 119.832L24.0254 117.979L24.4223 114.473L29.4509 104.019L29.12 100.512L27.0689 97.9314L23.893 96.3435L22.1727 93.4322L22.1066 91.6458L22.3713 89.8593L21.8419 88.2714L20.9156 86.8157L19.1953 83.1105L16.2841 80.5301L14.6961 80.0008L12.9759 79.7361L11.7187 78.5451L7.08717 69.8114L11.7187 69.0836L15.9533 67.1648L25.2825 61.607L27.1351 60.0852L27.8629 57.9679L27.5983 51.2191L28.1276 46.786Z" fill="white" stroke="#058D6C" stroke-width="1.91669" stroke-linecap="round" stroke-linejoin="round"/>
</svg>
