<svg width="152" height="197" viewBox="0 0 152 197" fill="none" xmlns="http://www.w3.org/2000/svg">
<path d="M73.9232 32.7325L69.3323 38.633L71.9557 46.5006L73.9232 50.1885L77.2023 52.8929L86.8212 51.172L91.1935 52.4013L98.6263 57.5643L101.25 61.0064L100.157 83.8713L102.343 94.4432L106.934 103.786L112.836 113.129L132.292 135.994L138.632 141.402L140.6 141.648L141.474 142.632L143.879 150.745L146.065 153.695L145.409 154.925L144.097 159.104L143.879 160.825L144.535 163.53L146.065 164.513L148.032 165.251L149.563 166.726L150 170.906L147.377 173.61L144.316 175.823L142.567 178.773L140.381 184.428L138.851 185.411L137.102 185.657H129.888L120.487 184.428H106.278L99.5007 183.445H96.2216L90.7563 186.641L87.4771 187.132H80.2629L52.062 190.82L50.3132 189.837L48.3457 189.591L46.3781 190.329L45.0665 192.295H46.8154H48.3457L49.6573 192.787L50.7503 193.525L47.2526 194.508L41.7873 195L36.9778 194.016L34.7917 191.558L32.6056 190.82L17.7401 189.837L18.3959 188.853L18.6145 188.362L19.0517 187.87L20.1447 187.132L17.9586 186.395L15.9911 186.886L14.6794 186.641L14.2423 184.428L14.8981 183.445L15.9911 182.707L17.0842 181.478L17.7401 179.511L17.3028 178.527L14.2423 174.348L14.8981 173.61L15.5539 171.643L13.1492 168.447L13.5864 163.776L16.647 155.171H15.5539L13.805 156.646L14.0236 152.22L12.4933 145.09L9.6514 139.927L7.46529 135.256L6.37223 127.389L2.65581 120.013L3.31168 116.816L4.18611 113.62L2 104.523L5.71642 97.6394L11.1817 91.4929L12.0561 83.1338L11.1817 74.5287L11.8375 66.4152L14.0236 54.8599L13.805 51.172L12.0561 47.7299L12.2748 44.042L19.7075 41.5834L28.2334 43.0585L33.0429 39.3706L34.1359 35.9286L32.387 32.4865L28.2334 31.0114L28.452 28.5528L32.387 18.2267L31.5125 5.44195L35.8848 2L42.2245 2.98335L50.3132 9.6216L55.9971 19.2102L65.3973 25.1107L73.9232 32.7325Z" fill="#FCFCFC" stroke="white" stroke-width="3" stroke-linecap="round" stroke-linejoin="round"/>
</svg>
