<svg width="148" height="190" viewBox="0 0 148 190" fill="none" xmlns="http://www.w3.org/2000/svg">
<path d="M0 184.927L0.515632 177.549L1.80483 172.706L3.8676 168.325L7.73519 162.33L15.4704 152.876L16.2439 151.493L16.5017 149.879L16.2439 146.881V145.267L19.0801 136.274L18.3066 127.051L19.0801 123.131L22.9477 120.364L25.5261 119.442L27.5888 118.519L28.878 117.136L29.6516 114.83L30.1672 106.99L29.9094 104.684L28.878 102.148L26.2996 97.767L25.5261 95.4611L24.7526 88.5436L21.1428 80.0121L20.1115 70.3277L14.6968 53.034L13.6655 47.9612V42.4271L15.4704 41.9659L19.8536 42.1966L25.0104 43.1188L29.9094 42.4271L36.3554 36.8932L40.7387 19.5995L45.3798 11.2985L58.5296 0L60.3345 4.84218L60.0766 10.6067L62.655 11.5291L72.9686 11.2985L84.3136 15.4489L90.5018 16.8325L96.4321 19.1383L95.6586 30.898L84.8293 41.5049L79.4146 54.648L81.2195 59.0291L84.0558 60.182L90.7595 61.3349L93.5958 62.7184L97.7212 67.7912L103.909 80.4733L104.941 82.0874L105.456 83.932L104.167 85.3156L102.878 85.7766V89.2354L102.62 92.233L101.847 94.5389L103.394 96.614L106.488 96.1528L109.324 94.0777L112.418 95.9223L113.192 100.073L117.833 103.301L116.801 109.296L119.122 114.369L122.474 119.211L124.537 124.745L128.662 129.126L134.335 129.818L139.491 128.434L141.554 128.665L144.906 130.51L145.937 132.354L148 132.816L134.85 139.041L125.826 149.418L117.575 150.801L109.582 153.337L92.0487 149.879L83.0244 150.801L74.2578 152.646L66.7805 156.796L64.2021 164.175L56.4669 178.24L48.7317 180.085L40.4808 177.087L25.2683 180.777L12.1184 190L5.67243 189.769L0 184.927Z" fill="white"/>
</svg>
