<svg width="160" height="192" viewBox="0 0 160 192" fill="none" xmlns="http://www.w3.org/2000/svg">
<path d="M159.556 186.292H154.85L150.233 185.217L145.794 185.961L137.536 189.518L129.012 189.766L125.372 192L123.241 191.173L112.053 184.638L79.1121 170.327L76.9811 170.74L76.0044 171.319L75.1165 172.808L77.6914 176.283L78.5793 178.516L77.9578 180.584L73.6071 182.156L71.8313 183.562L69.8779 187.45L67.4806 188.443L64.8169 188.939L54.162 189.436L44.6615 187.781L40.4883 186.54L38.1798 182.735L35.1609 179.426L32.7636 178.682L31.1653 177.193L31.4318 175.207L32.3197 173.387L33.5627 171.65L34.0066 169.748L33.7403 164.536L32.3197 160.234L27.9689 158.745L20.2442 160.069L17.758 158.497L17.8468 148.322L17.4917 145.179L16.1598 141.704L13.7625 138.892L9.76692 137.982L5.94896 138.561L4.52831 136.989L2.93007 135.666L0.887902 134.59L0 132.936L2.21976 129.131L3.01886 124.994L6.03772 121.851L7.99112 117.632L7.45837 113.248L4.43951 109.856L2.48612 104.975L2.30855 99.5984L2.7525 94.8005L4.79467 90.8298L8.79023 90.5816L11.1875 89.5062L12.9634 87.6863L15.6271 84.0465L22.5527 77.2632L26.9923 75.3606L28.0577 76.0224L29.212 76.5187L30.455 76.2706L35.5161 74.3679L39.6004 74.4507L43.596 75.4433L47.858 77.0978L52.1199 77.346L56.293 76.7669L58.9567 79.9104L62.3307 80.9858L71.0322 80.4067L74.939 79.4968L77.869 82.0612L79.3785 85.8664V90.0026L78.7569 94.1387L80.3552 97.6958L84.1731 99.1848L94.828 98.4403L97.1365 99.5157L99.7114 100.426L101.576 99.3503L100.866 97.034L102.198 92.7324L109.656 90.0026L111.964 88.679L113.563 86.9418L113.918 84.8738L109.034 83.3847L103.352 83.1366L92.6082 81.2339L87.7247 79.414L81.2431 71.3899L78.4906 66.8401L77.3363 67.171H75.1165L73.7847 65.4339L74.0511 63.3658L76.2708 59.3951L76.182 57.2443L75.2053 52.6945L74.1398 50.5437L71.8313 50.0474L69.434 50.2956L65.2608 51.371L62.4195 49.551L63.8402 44.8358L67.4806 41.7751L73.1632 41.3615L75.3829 40.3688L77.6027 39.0452L98.1132 31.6829L99.1787 29.5321L98.5572 26.885L99.0011 24.8169L103.885 11.9948L104.506 9.18224L105.483 6.45238L106.992 5.04609L109.123 4.30159L114.184 3.47436L116.226 4.71521L119.778 5.54244L128.657 0L133.274 2.97802L137.092 6.45238L137.98 8.85135L139.045 13.9802L139.134 16.5446L139.489 18.7781L140.91 20.8462L142.153 23.3279L142.597 26.0577L142.686 30.5248L144.728 40.7824L152.808 59.4778L153.163 64.8548L150.855 74.6988L152.63 76.9324L155.916 77.346L154.495 78.3386L153.429 79.7449L151.831 81.3994L145.527 84.791L142.242 88.9272L140.111 90.4989L134.961 91.9879L133.008 93.5597L130.966 98.2749L128.657 105.803L127.592 108.202L124.129 112.834L123.862 114.571L131.054 117.467L133.185 121.934L133.896 126.897L138.69 129.048L143.041 131.612L144.462 135.417L144.284 144.269L144.55 146.171L144.373 147.991L136.737 151.631L136.382 153.782L139.134 157.422L152.986 167.1L155.028 171.237L155.472 175.373L156.537 179.343L158.491 182.983L160 184.72L159.556 186.292Z" fill="white"/>
</svg>
