<svg width="137" height="182" viewBox="0 0 137 182" fill="none" xmlns="http://www.w3.org/2000/svg">
<path d="M94.6112 23.2015L91.4823 31.9542L92.1528 34.316L93.9407 33.4824L97.7401 30.287L99.975 29.4534L108.691 29.0366L117.258 30.8427L123.665 39.1786L128.731 50.9878L134.542 60.574L137 72.9389L134.765 85.7206L134.393 98.0855L131.934 102.392L129.103 106.282L126.794 111.562L125.08 117.814L123.218 136.292L123.442 142.96L122.771 160.744L121.43 170.885V171.024H120.76L119.121 171.719L118.227 172.969L116.96 177.693L116.066 179.36L114.874 180.472L112.639 182L111.522 178.527L109.883 173.108L103.178 158.243L98.187 153.519L89.2474 156.714H86.044L84.5541 156.159L83.4366 154.353L83.9581 147.962L82.6172 142.543L75.8379 135.18L71.7406 132.402L67.8668 131.846L64.2164 134.347L63.546 137.82L64.0674 141.849L63.099 144.766L61.162 146.711L58.7781 147.823L56.3197 147.962L54.0103 147.267H51.8499L50.1365 149.629L48.6466 152.685L46.9331 154.353L45.0707 154.769L43.8042 151.991L43.0593 148.518L42.6123 144.35L42.0163 142.682L40.8989 142.405L40.6754 143.516L40.0049 145.322L38.7384 145.183L37.472 145.739L35.3116 151.018L33.1512 151.991H30.9163L28.5324 152.547L27.6384 156.02L27.1169 164.911L24.584 171.302L20.7102 166.856L18.8478 159.493L20.7847 149.629L20.8592 144.489L20.1887 139.348L18.7733 135.18L16.4638 133.096L14.3779 134.069L12.739 136.431L10.4296 136.847L8.34367 134.902L6.18326 132.124L4.32084 128.789L2.7564 125.177L0.59599 116.702L0 112.395L2.16043 114.34L4.61882 118.092L6.40675 119.62L7.97119 118.786L8.12019 113.924L9.01414 109.756L16.4638 102.115L18.8478 94.8901L19.8162 86.4153L19.9652 82.942L20.6357 79.8855L21.7531 76.1343L20.3377 74.3282L18.2518 74.8839L16.3893 72.9389L15.7189 68.9099L14.8249 56.1282L14.9739 43.9023L14.7504 40.0122L13.633 36.261L11.994 33.0656L10.2806 28.4809L9.61013 23.2015L9.46113 17.5053L9.75911 11.3923L12.59 12.7817L16.2404 13.4763L18.9223 15.2824L20.8592 16.116L24.882 16.9496L26.8189 17.9221L29.6498 21.1175L30.6183 21.8122L35.3861 23.3404L36.876 24.313L39.9304 27.2305L41.7183 28.203L43.5063 28.6198L45.1452 29.4534L46.4116 32.0931L49.0935 34.8717L50.4345 36.8168L51.1049 37.5115L51.7754 37.9282L52.2224 38.0672L52.9674 36.261L52.5949 32.6489L49.913 21.6732L48.5721 14.032L49.5405 6.52975L52.6694 1.52821L60.1191 0L71.5171 7.08546L75.6145 8.75265L81.7977 9.16943L83.8836 8.89159V8.19694L94.6112 23.2015Z" fill="white"/>
</svg>
