<svg width="114" height="142" viewBox="0 0 114 142" fill="none" xmlns="http://www.w3.org/2000/svg">
<path d="M79.2583 106.503L77.0787 106.652L71.6297 107.89L70.3913 107.692L69.2024 107.246L68.7566 106.9L68.2612 106.801L66.9733 106.999L66.6265 109.178L66.6761 111.754L66.1807 114.429L64.1002 119.581L62.7627 124.634L60.8803 125.723L58.3044 125.129L56.1248 123.692L54.0443 121.86L51.4684 120.77L48.2485 120.324L45.1772 121.018L43.1463 123.395L40.9171 125.426L39.5301 125.476L38.5889 126.169L37.8954 127.556L36.8551 128.696L34.1801 129.934L31.1584 130.231L28.4339 130.875L26.2543 132.708L22.3905 137.761L17.635 141.129L11.542 140.783L8.86703 139.098L6.34066 135.036L5.0032 134.095L3.36847 133.451L1.93193 132.46L0.743047 131.024L0 129.34L0.0495546 127.655L2.82358 123.148L2.37774 119.829L3.81431 119.432L5.0032 118.491L5.84529 117.352L6.29113 116.014L6.04345 112.844L6.53882 109.773L8.66888 107.395L17.5359 104.274L19.8641 102.54L21.0035 99.915L20.8053 96.6951L21.0035 93.4257L21.796 92.1873L22.8363 91.0975L24.3719 88.3235L28.1862 83.568L27.9881 82.1809L27.3441 80.8435L26.2048 79.5555L24.7187 79.0601L23.4307 79.2583L22.44 78.9611L22.6382 77.4255L24.9168 72.9176L25.115 71.2334L24.2233 67.4191L25.9571 54.4901L25.1645 48.7439L29.3256 44.8305L30.9603 42.5023L31.9015 40.174L31.5547 37.7963L29.5733 36.3102L27.889 34.4278L27.245 32.0005L28.0872 24.6196L28.1367 24.5701H29.1274L30.0191 24.7187L30.7126 24.9664L31.3566 25.115L31.8519 24.8673L32.0501 24.4215L32.3473 22.3409L32.5454 22.1923L33.3876 22.0437L33.6848 21.9446L33.982 21.5979L34.1801 21.2016L34.4278 20.3595L33.7839 20.1118L34.0811 19.5669L34.5269 18.8734L34.6755 18.2294L36.013 16.9415L36.2112 16.7929L36.3598 16.991L36.6074 16.9415L36.8551 16.7433L37.1028 16.4956L37.2019 16.2479L37.2514 15.604L37.6477 15.9507L37.9449 16.2479L38.3412 16.5452L38.9357 16.6442L39.2329 16.4461L39.4805 15.5544L39.9264 15.3563L40.7685 15.1582L41.4125 14.6628L42.3537 13.4739L42.6013 12.8299H42.6509L42.7995 12.6813L42.9976 12.8299L43.1958 13.1272L43.2949 13.2262H43.8397L43.7902 13.0776L43.5921 12.7804L43.4435 12.3346L43.5425 12.186L44.0379 11.9878L44.1865 11.8887H44.2856L44.6324 11.9383L44.7314 11.8887V11.7897L44.6819 11.4925L44.7314 11.3934L45.7717 10.2045L46.267 9.80821L46.0194 9.511L45.7717 9.26331L45.524 9.1147L45.2268 9.01563V8.71841L45.7717 8.86702L46.267 9.1147L46.6138 9.06517L46.7624 8.47073L47.8027 8.66888L48.8429 8.47073L52.2114 6.78649L53.2022 6.43974L54.2424 6.34066V6.58835L54.0443 6.98464L54.4406 7.13325L55.1341 7.08371L55.7781 6.88557V7.03417V7.43047L56.0257 7.13325L56.3229 6.48927L56.5211 6.34066L56.9174 6.43974L56.9669 6.73696L56.9174 7.13325L56.7688 7.43047L57.7595 6.98464L58.7998 6.78649L59.6914 6.43974L60.3849 5.54808L59.84 5.49855L59.7905 5.3004L60.1373 4.7555L60.2859 4.70596H60.5335L60.7812 4.65643L60.8803 4.35921L60.8307 4.16106L60.6326 3.86384L60.6821 3.71523L60.8803 3.31894L61.128 2.97219L62.6141 1.53563L63.2085 1.13934L63.159 0.495364L63.5057 0.198147L64.5955 0.0495376L64.6451 0L73.9084 0.445829L82.5277 12.4832L91.0975 24.5701L93.2276 34.8241L95.3081 45.0782L95.3577 48.0503L95.4072 48.199L95.6053 48.8429V49.586L95.4072 50.7748V51.2207L95.7539 51.8151L96.2493 52.1123L96.8437 52.2114L104.522 52.4591L106.949 53.0535L107.989 53.5984L108.089 53.9947L107.89 54.5396L107.989 54.9359L108.237 55.1836L109.327 56.0257L109.773 56.2239V56.4715L109.624 56.5706L109.228 56.7687L109.971 57.2641L110.764 57.7099L111.358 58.2053L111.606 58.9979L111.804 59.1465L112.299 58.9979L112.794 58.7007L113.141 58.6016L113.587 58.7997L113.736 59.196L113.785 59.5923L113.092 60.3354L112.993 60.5831L112.794 60.8307L112.596 61.2766L111.952 64.0011L112.002 64.3974L111.358 64.8432L111.407 65.5862L112.151 67.2705L112.2 67.6668V67.964L112.051 69.2024L111.655 70.4408L110.813 74.3542L110.565 74.9982L109.178 76.831L108.98 77.1282L109.079 77.475L109.376 77.9703L109.525 78.0199H110.169L110.466 78.1685L110.615 78.4162L110.764 78.7134L110.962 78.9611L111.556 79.5555L112.002 80.1995L112.2 80.9921V81.9828L112.101 82.7754L111.804 83.7166L111.407 84.6082L110.962 85.3513L110.318 85.698L108.386 86.3915L107.593 86.8869L106.206 88.1253L105.414 88.5711L103.184 89.2647L102.491 89.6609L99.1224 92.7818L98.8252 92.8808L97.8345 93.0294L97.3887 93.2276L96.3484 94.3174L95.6549 94.8127L94.8623 95.209L94.0202 95.4072L93.2771 95.3081L90.6517 94.1688L89.1656 93.7725H87.9767L86.5402 94.9118L85.1532 96.3484L83.9147 97.9335L83.0231 99.5682L82.3791 101.104L81.9333 101.698L80.4967 102.491L79.9023 103.036L79.4565 103.68L79.3079 104.472L79.5555 105.909L79.2583 106.503Z" fill="white"/>
</svg>
