<svg width="148" height="176" viewBox="0 0 148 176" fill="none" xmlns="http://www.w3.org/2000/svg">
<path d="M8.32771 40.6949L11.2497 44.2066L15.4867 48.1314L20.6002 50.6103L26.2981 54.9484L28.3435 57.2207L31.1194 57.8404L33.0188 57.4272H34.6258L38.7167 54.5353L42.5153 50.817L44.5607 49.7841L46.6061 48.5446L48.6515 47.5117L50.6969 48.1314L54.0573 47.3052L57.1254 45.0328L60.7779 37.5963L62.2389 36.5634L66.0375 41.3145L68.3751 43.3803L70.5666 44.8263L73.6347 45.2395L75.388 44L78.6022 37.8028L79.6249 37.1831L80.7937 37.3897L82.2547 38.0094L83.5696 38.216L85.0306 37.8028L85.9072 36.9766L86.4916 35.9437L87.3682 34.9108L89.998 33.878L91.3129 32.8451L91.8973 31.1926L91.6051 29.953L90.5824 27.4742L90.2902 25.8216L91.1668 22.1033L93.3583 21.0704H98.0336L99.9329 20.2441L100.225 19.4179V17.1455L100.517 15.2864L101.102 13.6339L101.832 12.1878L102.855 10.9483L104.9 8.67608L106.8 7.84974L121.117 4.75115L122.871 3.30524L122.578 0L132.806 1.23951L136.02 6.61035L136.458 7.43669L136.75 8.05639L136.604 9.29577L136.312 10.1221L135.289 11.3615L135.143 11.9812L134.559 12.3944L132.513 13.0141L132.075 14.0469L131.783 15.6996L131.052 17.3522L127.4 23.9625L124.624 26.6479L122.286 29.953L120.679 34.9108L120.095 42.1409L119.218 45.446L117.319 46.892L116.588 48.3381L115.858 51.6432L115.42 55.5681V58.6667L115.712 60.5258L116.15 62.1785L116.734 63.831L117.611 65.2771L115.712 68.169L114.543 71.6808L114.251 73.953L112.059 78.7043L110.744 84.0751V90.4788L113.228 95.2301L114.835 96.263L116.442 96.4695L117.319 98.3287L116.881 101.221L118.049 105.972L121.41 105.559L130.614 100.807L137.481 106.798L138.357 112.582L140.111 117.746L143.179 121.052L146.831 123.324L148 125.803L147.416 127.042L145.662 133.653L144.932 140.676L145.662 145.84L145.224 147.286V150.385L144.932 152.244L143.909 148.732L143.617 146.667L143.325 136.958L142.74 135.099L142.302 136.131L141.718 137.164L141.133 137.784L140.403 138.404L140.987 140.676L141.133 147.906L141.572 150.592L142.886 153.897L143.763 156.995L144.932 162.366V164.225L144.201 165.878L143.033 166.498L139.672 166.291L136.458 166.911L135.874 165.878L134.705 160.714L134.267 155.962L134.413 148.732L133.974 143.155L132.367 139.023L129.007 139.437L132.075 142.948L133.098 148.526L132.806 154.93L131.345 160.92L131.052 166.085L125.647 167.944L119.218 167.117L116.15 164.225L114.689 164.639L113.228 165.258L113.959 168.15L112.205 169.183L109.429 169.39L107.384 170.216L105.193 171.455L100.225 171.662L98.0336 172.695L95.4037 168.357L97.5953 161.746L104.9 150.178L103.439 149.972L102.563 149.765H101.832L100.956 150.178L97.157 156.582L96.7186 148.113L94.8194 140.469H94.235L94.0888 143.568L94.235 147.7L94.8194 151.624L95.696 154.31L94.5271 152.864L93.6506 151.211L92.3356 149.765L90.2902 149.146L91.6051 152.864L92.774 155.136L93.5045 157.822L93.3583 161.953L92.6278 165.052L91.8973 167.324L91.1668 168.15L90.2902 168.563L89.5597 169.39V171.662L90.4363 171.042H91.1668L92.6278 171.662L92.0434 173.108L88.9753 174.554L84.8845 174.967L82.1086 173.934L81.6703 174.554L80.9398 175.38L80.5015 176L78.7483 174.967L77.7256 173.521L77.4334 171.249V168.357L77.8717 165.878L79.3327 162.16L79.6249 159.887L79.1866 160.301L78.0178 160.714L77.4334 160.92V158.441L77.8717 154.103H76.7029L75.534 153.69L74.2191 152.864L72.9042 153.484L72.466 154.93L72.7581 157.408L73.1965 159.474L73.6347 160.92L73.1965 162.986L73.7809 164.639L74.6575 166.498L75.2419 168.976L74.8035 172.282H74.073L72.7581 170.629L71.005 169.596L68.5212 169.39L67.6446 168.563L67.4985 162.986L68.229 162.779L68.3751 162.366L66.9141 159.268L66.768 158.854L66.6219 156.169L66.768 153.484H66.1836L65.307 158.854L64.7226 158.028L62.9694 156.582L64.7226 161.953L65.0148 164.639L63.6999 166.291L62.0928 166.085L60.3396 164.639L59.0247 162.779L58.1481 161.953L55.8104 160.92L53.3268 158.028L52.0119 154.103L53.1807 150.178L52.0119 149.972L51.1352 150.592L50.843 151.624L50.9891 153.484H50.2586L48.3593 150.798L43.9763 147.08L42.6614 144.808L43.3919 145.427L44.8529 146.253L45.5834 147.08L44.7068 145.014L43.3919 143.981L41.9309 143.568L40.3238 142.742L37.9862 139.023L37.1096 137.371L34.1876 133.033L33.4571 132.413L23.23 118.779L20.1619 112.789L18.9931 105.972L19.4314 106.178L19.8697 106.385L20.6002 107.211V104.113L15.7789 99.9813L14.464 96.8827L14.0257 94.4038L11.2497 87.5869L9.93483 85.7277L13.7335 88.8263L12.8568 85.108L9.20433 79.5305L6.13623 67.3428L5.25961 59.9061L4.67522 57.6338L3.21421 53.5024L2.62979 51.0235L2.3376 48.5446L2.0454 47.3052L1.16879 46.0657L0.438284 44.4131L0 41.9342L0.584394 40.0752L1.89929 39.2488L3.65252 39.4555L5.40572 40.2817L6.57453 41.7277L8.61993 45.6527L9.93483 46.892L8.32771 40.6949Z" fill="white"/>
</svg>
