<svg width="141" height="180" viewBox="0 0 141 180" fill="none" xmlns="http://www.w3.org/2000/svg">
<path d="M2 81.2765L2.10284 81.1235L10.7425 49.5966L16.1937 53.5757L19.8964 59.8504L19.1764 67.5026L19.7935 73.6243L21.3363 75.3079L22.7763 74.5426L27.199 68.727L26.7875 64.9009L27.6104 62.1461L32.6501 62.4522L35.0158 61.8401L37.8956 62.1461L40.8784 65.36L42.3183 66.2783L43.1411 66.4314L43.8611 65.513L44.3754 63.9826L48.6952 60.0035L53.5293 59.6974L62.5803 67.0435L66.7973 73.9304L69.4715 76.0731L71.6314 78.5217L71.3228 82.8069L69.5743 86.9391L69.9858 88.3166L70.8086 89.3879L71.22 90.7652L70.9114 92.1426L71.0143 93.9792L72.3514 94.5913H73.7913L81.4024 92.1426L85.4137 87.8574L88.6021 82.1948L92.9219 77.2974L96.1104 71.7879L97.036 67.3496V62.7583L96.0075 61.3808L94.5676 60.9217L89.9392 54.4939L87.4707 48.6783L86.545 44.087L86.3394 40.1079L83.8709 33.68L84.0766 29.3948L85.208 26.1809L87.0593 23.5792L89.6306 24.0383L91.6877 27.0992L93.2305 30.7722L95.3904 30.9253L98.6817 24.8035L100.739 22.967L108.041 18.3757L117.504 9.80527L122.235 6.89741L125.115 6.7444L127.789 7.50962L130.052 6.4383L132.417 2V5.67308L132.829 9.04006L134.989 20.5183L135.4 26.9461L136.84 32.6087L137.149 37.2L137.457 38.7304L138.486 41.6383L138.897 43.3217L139 44.8522L138.794 50.0557L138.486 51.5861L137.971 52.5043L137.149 53.1166L136.12 53.7287L134.577 55.5652L134.269 58.167L134.577 64.2887L133.446 70.2574V71.3287L133.549 73.3183L133.446 74.3895L133.137 75.3079L130.052 81.5826L128.509 85.5618L127.686 88.4696L127.172 91.6835L126.966 96.5808L124.909 110.049L123.366 115.405L123.058 117.854L122.749 121.068L122.338 122.598L121.721 123.823L120.281 126.271L119.767 126.73L118.429 127.496L117.915 128.108L117.195 129.332L116.681 129.791L116.784 130.097L118.121 135.148L118.327 137.597L117.092 138.668L107.013 140.963L105.676 141.576L104.236 143.259L103.516 144.177L103.001 145.249L102.59 146.473L102.384 147.85V149.534L102.179 150.146L100.842 150.758H97.5503L96.0075 151.523L95.3904 154.278L95.5961 155.503L96.3161 157.339L96.5218 158.257L96.1104 159.482L95.1847 160.247L93.3333 161.012L92.7162 161.777L92.3048 162.543L91.6877 163.155L90.6592 163.461L89.7335 163.308L88.705 162.849L87.8821 162.696L87.1622 163.155L84.8994 167.746L83.6652 168.664L81.5053 168.358L79.9625 167.287L78.3168 165.757L75.6427 162.237L74.6141 163.002L72.0428 168.511L69.8829 170.195L67.5173 170.807L66.0773 170.348L64.6374 171.113L63.1975 172.031L61.7575 172.797L59.0833 175.551L56.2034 177.694H55.0721L53.735 178L51.7808 177.541L50.3408 175.857L46.3296 172.643L42.7297 170.807L39.747 167.899L37.6899 165.297L37.1757 163.461L38.8213 163.767L40.467 164.379L39.8498 162.849L37.6899 159.482L36.97 158.717L36.6614 159.176V161.318L36.4557 161.777L35.7357 161.93L35.1186 162.084L33.9872 162.696L32.9587 161.93L31.1073 162.39L30.2845 161.777L30.1817 160.859L30.2845 156.727L29.976 151.37L28.3303 140.81L28.7417 139.28L30.5931 138.668L35.7357 138.515L37.1757 137.903L37.3814 138.974L37.5871 139.739L38.3071 141.117L38.9242 140.504L39.4384 138.668L39.9527 137.903L40.3641 137.443L43.0383 135.913L44.3754 135.454L45.5068 135.607L46.3296 136.372H46.8439L46.2267 134.995L44.3754 132.546L43.6554 130.71L43.3468 129.179L43.244 127.19L43.4497 125.353L43.8611 123.976L44.8896 123.057L46.1239 122.598L48.6952 122.751L49.6209 122.139L50.5465 120.609L51.6779 118.007L50.4437 118.772L49.4152 120.15L48.2838 121.068L46.8439 120.303L46.6381 120.915L46.1239 121.374L45.7125 121.986L43.964 121.374L42.1126 122.751L40.9812 125.353L41.4955 128.414L40.5698 131.169L39.5413 133.005L38.3071 133.464L36.6614 132.393L36.25 131.628L36.0443 130.863L35.7357 130.25L34.8101 130.097L34.3987 130.71L34.6044 132.24L35.1186 133.77L35.6329 134.842L31.1073 134.383L22.262 130.097L21.9535 129.485L21.542 128.108L21.3363 127.496L18.8679 124.129L17.2222 122.445L16.6051 119.997L16.5022 117.548L16.7079 116.323L17.2222 116.017L18.4565 113.875L19.1764 113.263L19.6907 113.11L27.4047 113.569L30.2845 114.181L31.8273 115.558H32.4444L33.1644 113.875L34.5015 109.743L35.1186 108.365L36.0443 107.753H37.2785L38.5128 108.365L39.3356 109.284L39.5413 110.049L39.9527 112.65L40.1584 113.263L40.9812 113.11L41.3926 112.804L41.4955 112.038V110.814L40.8784 108.977L39.6442 106.988L37.9985 105.304L36.6614 104.386L35.2215 104.539L34.3987 105.61L33.473 109.284L32.6501 110.355L31.4159 111.273L29.976 111.732L28.6389 111.579L27.199 110.355L26.5818 108.671V106.682L28.0218 100.407L28.2275 98.7235L28.1246 96.4278H27.6104L25.4504 105.151L24.6276 107.447L23.5991 108.977L22.262 109.743L20.4107 110.049L19.5878 110.355L17.7365 111.885L15.7823 112.957L15.3709 112.65L14.2395 111.579L13.1081 110.049L11.8739 107.753L10.8453 105.304L10.1254 102.09L9.4054 100.407L8.68544 98.2644L8.37687 95.6626L8.58258 93.214L9.09684 90.6122L9.81681 88.4696L10.7425 87.5513L11.6682 88.0105L13.211 89.847L13.8281 90.1531L14.2395 89.3879L14.0338 88.3166L13.7252 87.0922L13.8281 86.0209L16.2965 82.8069L22.6734 79.287L24.4219 74.8487L22.7763 75.3079L20.1021 78.8278L17.0165 80.2053L11.1539 84.9496L10.0225 86.1739L6.11411 91.5304H5.29129L2.41141 81.8887L2 81.2765Z" fill="white" stroke="white" stroke-width="3" stroke-linecap="round" stroke-linejoin="round"/>
</svg>
