<svg width="129" height="194" viewBox="0 0 129 194" fill="none" xmlns="http://www.w3.org/2000/svg">
<path d="M78.7241 7.28365L80.1035 13.8354L85.1035 26.7275L88.7242 32.2226L93.0345 37.2948L98.0345 41.5217L102.862 44.4806L108.207 43.8466L112 40.2537L116.828 38.7742L122.172 41.9444L125.448 48.2848L127 56.1046L126.828 63.9244L122.345 78.93L113.724 79.9867L109.414 79.564L105.103 82.7342L110.276 103.446V114.859L104.586 136.205L106.828 140.432L107 142.756L108.552 149.52L108.724 154.38L109.759 159.453L109.931 164.314L107.345 168.963L104.241 173.402L103.379 181.433L104.931 189.887L101.31 192L96.6552 186.716L93.8966 184.392L90.4483 182.278L84.069 184.814L75.4483 176.994L69.2414 177.206L63.0345 178.474L62.6897 177.84L61.8276 177.206L60.4483 176.783L59.7586 175.092L57.5173 173.402L56.138 173.19L52.6897 174.458L48.8966 173.824L46.1379 169.809L44.7587 164.736L42.5172 160.298L40.9655 155.648L41.6552 150.154L38.5517 147.195L38.0345 143.39L35.9655 141.7L34.069 143.602L32 144.024L30.9655 142.122L31.4828 140.009L31.6552 137.261V134.091L32.5173 133.669L33.3793 132.4L33.0345 130.71L32.3448 129.23L28.2069 117.606L25.4483 112.957L23.5517 111.689L19.069 110.632L17.1724 109.575L15.9655 105.559L19.5862 93.5129L26.8276 83.7909L27.3448 73.0123L23.3794 70.8988L19.2414 69.6307L11.6552 65.8265L4.75863 66.0379L3.03449 65.1925L3.20692 59.9088L2 55.4706L5.44828 47.0168L9.93104 43.4239L10.1035 44.9033L10.2759 46.1713L10.7931 48.4961L11.6552 49.5528L13.7242 53.3572L17 55.0479L22.8621 49.5528L27.6897 42.1557L38.7242 32.8566L45.1034 25.4595L52.6897 13.4127L55.1035 10.8766L59.069 8.97452L63.3793 4.95889L68.0345 2L74.4138 2.42272L78.7241 7.28365Z" fill="white" stroke="white" stroke-width="3" stroke-linecap="round" stroke-linejoin="round"/>
</svg>
