<svg width="127" height="134" viewBox="0 0 127 134" fill="none" xmlns="http://www.w3.org/2000/svg">
<path d="M11.605 104.951L11.6982 102.713L10.3927 100.661L9.55344 100.102L8.71417 99.7286H7.87491L7.22213 99.4488L7.03563 98.5163L5.5436 96.7445L3.86505 95.2525L2.373 94.4132L2 93.7605L2.1865 93.2009L2.65276 92.7346L3.02577 91.8954L3.39879 89.7506L4.33131 88.2585L5.9166 87.7923L7.68839 86.7665L8.71417 85.0879L9.18044 82.9431L10.3927 81.1714L12.0713 77.4413L10.7657 73.7112L9.55344 71.7528L8.99393 71.4731L8.62092 70.8203V68.6755L8.90068 67.6498L9.18044 65.3185L9.92646 63.8264L12.1645 61.1221L14.6823 58.6975L15.5216 56.7392L16.7339 55.2471V53.3821L17.5732 52.4496L18.6922 51.8901L38.555 51.9833L41.7255 54.5011L40.6065 56.273L39.8605 58.3245L41.7255 62.9871L43.3108 62.7073L46.7612 59.9098L48.8127 60.0963L49.7453 60.9356L51.9833 61.4018L53.1023 61.0288L53.9416 60.4693L54.8741 58.7908L55.2471 57.8583L56.0864 53.2889L56.7392 51.517L58.3245 51.1441V50.025L58.6042 49.5588L58.9772 49.3722L59.257 48.7195L58.9772 47.8802L57.9515 45.7354L58.138 43.2176L59.0705 40.6065L60.9356 38.6482L61.8681 37.4359L62.3343 35.7574L65.5982 28.2972L65.3184 27.5512L65.4117 26.6187L66.997 24.8469L68.6755 23.3548L69.8878 22.6088L70.8203 21.583L71.4731 19.2517L71.2866 17.6664L70.8203 16.6406L70.5405 14.4026L71.2866 12.9106L70.9136 11.6983L68.862 10.2995L69.5148 7.78166L70.4473 6.94237L72.4056 6.47611L73.2449 6.10313L74.8302 4.23808L76.1357 2L77.348 2.65278L78.7468 2.37303L79.959 3.11904L79.6793 4.51783L82.0106 5.26384L82.5701 6.94237L81.7308 10.0197L83.5027 12.4443L86.7665 12.351L90.0303 11.0455L91.4291 10.113L92.8279 9.83323L93.5739 11.0455L94.5997 11.978L96.931 13.5633L98.9825 15.8946L100.568 15.9879L103.272 15.3351L104.764 15.5216L106.536 17.1069L108.121 21.0235L109.054 22.329L109.334 23.6346L110.266 25.0334L113.81 24.3806L116.701 23.1683L118.566 22.9818L119.591 23.8211L120.431 24.8469L120.617 26.0591L121.55 26.6187L123.415 27.1782L123.601 27.7377L124.72 30.2555L124.907 30.9083L125 32.2138L124.72 33.5193L123.788 36.1304L123.508 39.8605L122.855 41.5391V42.2851V45.3624L122.669 46.0152L120.897 50.025L120.058 52.7294V53.9416L120.431 57.6717L120.151 66.8105L120.431 69.7946L121.829 73.8976L121.923 74.9234V75.9492L119.778 78.6535L117.726 79.3063L115.302 78.8401L112.691 78.9333L108.401 80.7051L99.8218 85.9272L93.2009 88.7248L91.3359 89.8438L88.3518 93.5739L86.3935 93.4807L84.9947 91.2426L83.1296 89.3776L80.7983 89.0978L79.1198 90.6831L78.094 92.6414L77.9075 95.2525L80.1456 99.1691L80.332 101.594L81.1713 104.391L83.4094 107.935L87.6058 111.851L88.9113 112.131L89.8438 112.97V115.768L89.0045 118.472L86.1137 121.829L82.1971 124.814L79.3063 128.264L75.6694 130.875L68.7688 132.367H67.4632L66.251 131.994L66.1577 130.875L66.4374 130.036L66.0644 129.196L65.3184 128.544L64.9454 127.704L66.5307 125.186L66.8104 122.575L64.8522 121.083L62.4276 119.778L58.6042 115.582L50.398 111.105L46.0152 111.292L42.0985 113.716L41.6323 114.649L40.9795 115.209L40.2335 115.115L38.928 114.556L36.2236 112.597L33.6126 112.411L31.4678 112.784L26.8984 112.597L26.1524 114.276L26.5254 116.607L22.5155 120.151L21.21 120.617L19.8112 119.591L19.2517 115.861L19.9045 111.199L16.5474 107.375L11.605 104.951Z" fill="white" stroke="#058D6C" stroke-width="2.70137" stroke-linecap="round" stroke-linejoin="round"/>
</svg>
