<svg width="129" height="114" viewBox="0 0 129 114" fill="none" xmlns="http://www.w3.org/2000/svg">
<path d="M24.3679 8.19402L25.8044 9.26865L26.5226 11.597L29.3956 12.6716L37.8351 10.1642L46.8132 15.8955L52.2 16.2537L55.6117 16.9701L61.3577 16.0746L62.435 16.4328L63.692 16.0746L65.3081 12.8507L66.2059 8.37313L69.0788 4.97016L73.927 3.35818L88.4715 3L85.7781 6.7612L85.9577 12.4925L88.6511 13.5672L92.2424 11.2388L97.0905 10.1642L102.298 9.62683L104.812 9.98506L106.787 11.4179L106.607 14.4627L103.555 16.2537L99.6044 21.2686L98.527 27L100.502 32.9104L104.991 37.0298L106.966 36.8507L109.121 38.8209L119.895 44.0149L126 45.8059L123.486 49.7463L120.254 51L116.483 49.388L112.892 51.3581L111.635 53.8656L109.839 56.194L106.248 58.1642L100.502 64.6119L98.7066 68.5522L96.1927 81.4478L88.6511 99L74.4657 111L66.7445 107.955L63.8715 98.6418L60.4599 91.8358L53.6365 89.8656L43.9402 90.403L29.0365 89.3283L24.0088 89.5075L14.492 92.5522L3.71826 63.5373L3 56.3731L4.4365 50.4626L5.51389 33.985L11.7986 25.5672L17.0058 23.2388L21.1358 19.4776L24.3679 8.19402Z" fill="white" stroke="#058D6C" stroke-width="4.2372" stroke-linecap="round" stroke-linejoin="round"/>
</svg>
