<svg width="150" height="178" viewBox="0 0 150 178" fill="none" xmlns="http://www.w3.org/2000/svg">
<path d="M91.8414 5.89433L93.4745 11.9634L99.3945 23.9055L103.681 28.9956L108.785 33.6941L114.705 37.6096L120.421 40.3505L126.749 39.7632L131.24 36.435L136.956 35.0646L143.284 38.0012L147.163 43.8743L149 51.118L148.796 58.3616L143.488 72.2614L133.281 73.2403L128.178 72.8487L123.075 75.7853L129.199 94.9711V105.543L122.462 125.316L125.116 129.231L125.32 131.385L127.157 137.65L127.361 142.152L128.586 146.851L128.79 151.354L125.728 155.661L122.054 159.772L121.033 167.211L122.87 175.042L118.583 177L113.072 172.106L109.806 169.952L105.723 167.994L98.1697 170.344L87.9628 163.1L80.6138 163.296L73.2649 164.47L72.8566 163.883L71.8359 163.296L70.2028 162.904L69.3862 161.338L66.7324 159.772L65.0994 159.576L61.0166 160.751L56.5255 160.164L53.2593 156.444L51.6262 151.745L48.9724 147.634L47.1352 143.327L47.9517 138.237L44.2773 135.496L43.6649 131.972L41.2152 130.406L38.9697 132.168L36.52 132.559L35.2952 130.798L35.9076 128.84L36.1117 126.295V123.358L37.1324 122.967L38.1531 121.792L37.7448 120.226L36.9283 118.855L32.029 108.088L28.7628 103.781L26.5172 102.606L21.2097 101.627L18.9642 100.649L17.5352 96.9288L21.8221 85.7698L30.3959 76.7642L31.0083 66.7798L26.3132 64.8221L21.4138 63.6474L12.4317 60.1235L4.26622 60.3193L2.22484 59.5362L2.42899 54.6419L1 50.5307L5.08276 42.6998L10.3904 39.3716L10.5945 40.742L10.7987 41.9166L11.411 44.0701L12.4317 45.0489L14.8814 48.5729L18.76 50.1391L25.7007 45.0489L31.4166 38.1969L44.4814 29.5829L52.0345 22.7309L61.0166 11.5718L63.8745 9.22249L68.5697 7.46061L73.6731 3.74087L79.1849 1L86.7379 1.39157L91.8414 5.89433Z" fill="#FCFCFC" stroke="#A6E9C9" stroke-width="2" stroke-linecap="round" stroke-linejoin="round"/>
</svg>
