<svg width="129" height="137" viewBox="0 0 129 137" fill="none" xmlns="http://www.w3.org/2000/svg">
<path d="M14.0301 134.634L7.6391 133.901L4.06768 128.039L3.31581 125.474L2 25.2659L2.56389 21.4187L5.94738 19.77L32.2632 18.6708L40.9098 21.4187L54.2556 34.0592L61.0225 37.7231L61.7744 37.54L81.8872 9.69424L95.4211 8.22869H99.3684L103.316 8.96147L106.887 10.427L109.895 8.04549L114.406 2L119.669 3.83196L122.301 8.59505L126.624 7.67907L127 10.6102L126.624 13.1749L124.932 14.2741L123.241 14.8237L120.609 19.4036L117.414 34.4256L117.038 43.219L117.414 56.9587L110.835 85.354L104.632 102.025L99.7444 109.902L93.3534 116.68L75.1203 125.657L55.0075 130.97L34.5188 134.084H33.203L28.1278 135L22.8647 134.45L14.0301 134.634Z" fill="white" stroke="#FCFCFC" stroke-width="3" stroke-linecap="round" stroke-linejoin="round"/>
</svg>
