<svg width="128" height="194" viewBox="0 0 128 194" fill="none" xmlns="http://www.w3.org/2000/svg">
<path d="M104.48 81.9408L105.527 91.3704L99.0132 104.178L98.8968 108.963L100.642 113.748L103.433 117.83L106.807 120.644L110.645 122.474L113.786 125.148L119.719 136.689L126 141.474L125.069 150.904L125.535 165.259L124.255 169.763L120.998 173L104.597 184.822L97.152 188.904L89.0094 190.452L58.0676 192L48.7618 191.156L49.3434 188.481L47.3659 185.526L44.8068 179.333L43.4109 172.578L42.8293 165.541L40.1538 158.504L22.0075 142.037L18.4015 135.844L18.8668 132.185L28.8705 125.993L29.1032 122.896L28.7542 119.659L28.9869 104.6L27.1257 98.126L21.4259 93.763L15.1445 90.1037L14.2139 81.6593L11.4221 74.0593L2 69.1334L2.34895 66.1778L6.88557 58.2963L8.28146 54.2148L11.3058 41.4074L13.9812 33.3852L16.5403 30.7111L23.287 28.1778L26.0788 25.5037L30.3828 18.4667L38.6417 12.6963L40.7355 9.88149L42.1313 7.4889L43.9925 5.80002L56.2064 2L68.304 9.17779L73.8874 14.3852L78.773 20.7185L83.077 27.7556L92.2664 39.1555L94.1276 41.9704L94.7092 45.6296L93.546 70.5408L94.2439 78.4222L94.9419 81.6593L101.223 82.363L104.48 81.9408Z" fill="white" stroke="#FCFCFC" stroke-width="3" stroke-linecap="round" stroke-linejoin="round"/>
</svg>
