<svg width="134" height="162" viewBox="0 0 134 162" fill="none" xmlns="http://www.w3.org/2000/svg">
<path d="M106.441 157.488L101.373 159.163L96.0847 160L87.2711 156.65L66.3389 159.442L42.7627 157.208L25.1356 142.693L24.0339 139.901L20.0678 136.272L18.5254 134.039L18.3051 126.502L20.7288 119.802L22.0509 104.728L15.2203 95.5159L9.05081 97.47L3.10169 96.9117L2 92.1661L7.28812 58.6678L9.05081 51.1307L20.2881 39.9646L33.2881 35.4982L40.339 39.1272L46.9491 36.894L53.5593 19.8656L55.7627 10.9329L62.1525 5.90803L69.644 3.67484L77.3559 2.55834L92.339 6.74562L99.1695 3.67484L106.22 2L109.746 5.90803L118.119 11.212L122.746 12.6077L129.136 19.8656L131.339 43.5936L129.797 53.3639L128.254 56.4347L130.017 60.3427L131.339 65.9257V71.788L132 77.6501V83.2332L130.678 88.2579L128.475 92.7244L126.932 98.3075L124.949 103.611L118.559 112.544L106.441 157.488Z" fill="white" stroke="#FCFCFC" stroke-width="3" stroke-linecap="round" stroke-linejoin="round"/>
</svg>
