<svg width="160" height="135" viewBox="0 0 160 135" fill="none" xmlns="http://www.w3.org/2000/svg">
<path d="M98.1951 11.9426L99.9351 12.3569L105.901 14.3455L111.369 11.9426L112.363 10.3684L113.109 8.62843L114.186 7.79988L118.578 5.97706L121.643 5.14851L127.526 2.7457L130.343 2L132.994 2.82855L134.569 5.31422L136.226 11.7769L136.806 13.3512L139.54 13.7655L143.683 12.6055L145.754 12.7712L147.991 13.8483L150.311 14.3455L152.465 14.2626L154.205 15.5883L156.111 19.7311L157.271 28.8452L158.597 32.9879L150.311 38.5392L146.997 37.7107L145.091 36.4679L140.369 37.2964L138.38 38.0421L136.971 39.4506L136.06 42.1849L135.48 45.002L130.923 57.8446L130.509 59.9159L131.089 62.5673L130.094 64.7215L110.955 72.0957L108.884 73.4214L106.812 74.4156L101.509 74.8299L98.1123 77.8956L96.7866 82.6183L99.438 84.4411L103.332 83.364L105.569 83.1154L107.724 83.6126L108.718 85.7668L109.629 90.3239L109.712 92.4781L107.641 96.4552L107.392 98.5265L108.635 100.267H110.706L111.783 99.9351L114.352 104.492L120.4 112.529L124.957 114.352L134.983 116.258L140.286 116.506L144.843 117.998L144.511 120.069L143.02 121.809L140.866 123.135L133.906 125.869L132.663 130.177L133.326 132.497L131.586 133.574L129.183 132.663L127.029 131.586L117.086 132.332L113.523 130.84L112.032 127.277L112.612 123.135V118.992L111.203 115.18L108.469 112.612L104.824 113.523L96.7038 114.103L93.5553 113.026L91.0696 109.878L87.1754 110.458L83.1983 110.209L79.2212 108.552L75.4927 107.558L71.6814 107.475L71.8471 106.646L71.7642 104.906L71.8471 103.995L72.4271 102.089L73.4214 100.349L78.9727 95.2952L79.5527 93.8038L78.1441 92.9752L77.3156 92.7267L75.907 91.8153L74.1671 89.9924L73.2557 88.5839L71.8471 84.9383L71.1014 84.4411L69.4443 84.1926L66.7101 84.4411L65.7158 83.5297L66.5444 79.6355L68.8643 76.2384L69.3615 74.747L69.6929 73.2556L70.4386 71.1843L70.6043 69.03L69.61 65.2187L68.9472 63.313L66.0472 62.9816L63.8101 64.5558H59.9159L59.8331 62.8987L59.4188 61.3245L58.9217 61.0759L56.3532 61.4902L54.8618 62.0702L54.1989 61.8216L53.6189 61.3245L52.7075 59.9159L53.2875 58.9217L53.9503 58.0931L54.1989 56.9331V51.0504L51.5476 47.7362L47.5705 47.3219L44.0906 46.0791L43.5934 44.1734L43.6763 41.9363L42.8477 40.1963L41.2735 39.1192L39.6164 38.2078L38.125 37.0478L37.545 34.8107L37.6278 32.3251L37.3793 30.668L35.8879 30.0051L31.8279 28.928L28.0995 28.348L24.371 29.0937L21.2225 30.7508L19.3168 33.5679L18.2397 36.7164L17.494 37.9593L16.4168 37.2964L16.1683 36.4679V35.4736L15.6711 34.3965L12.5226 28.6794L11.777 26.7738L10.4513 25.2824L5.47994 25.1995L2.16572 23.1281L2 18.9854L2.49714 14.6769L3.40855 13.0198L10.1198 11.9426L14.594 11.8598L18.7368 12.3569L28.4309 11.9426L29.5909 13.1026L30.668 16.4168L32.4079 19.3168L33.8165 20.2282L35.3907 20.891L36.8821 20.8082L38.7878 19.6482L39.6164 20.6425L40.5278 21.471L43.0134 21.7196L46.4105 20.891L49.3933 19.3168L52.2104 17.0797L52.8732 16.0026L53.3704 14.7597L53.9503 13.8483L54.696 13.1026L55.7732 12.6883L56.1046 11.6941L56.1874 11.1141L74.4985 13.2683H76.8185L80.1327 12.2741L81.2926 12.1912L94.6324 13.7655L95.958 13.6826L96.3723 13.5169L97.0351 13.0198L97.7809 12.4398L98.1951 11.9426Z" fill="white" stroke="#058D6C" stroke-width="2.40019" stroke-linecap="round" stroke-linejoin="round"/>
</svg>
