<svg width="170" height="192" viewBox="0 0 170 192" fill="none" xmlns="http://www.w3.org/2000/svg">
<path d="M77.1069 167.698L75.6422 167.209L74.0961 167.796L73.6892 166.622L74.3402 164.373L74.5029 163.297L73.4451 161.634L72.6314 161.047L71.4108 158.699L71.899 155.96L75.3166 153.026L75.6422 151.559L75.8049 149.994L76.4559 148.82L77.351 147.842L78.7343 145.886L78.4088 143.538L76.5372 142.462L75.6422 140.506L76.1304 138.452L74.8284 137.082L72.55 136.3L71.3294 134.343L72.7127 133.072L74.5843 132.876L76.2117 131.311L76.2931 128.572L75.1539 116.541L72.1431 113.998L63.0294 114.194L58.4725 113.509L53.9971 111.259L51.3117 106.955L52.7765 104.803L54.7294 103.238L56.4382 100.793L58.3912 98.9345L60.4255 97.2716L61.9716 94.924L62.0529 92.3809L60.2627 90.8158L55.8686 88.8595L54.4853 87.1967L55.299 84.5557L55.2176 78.4911L51.8 75.0676L49.6843 75.7523L48.7078 75.4589L48.301 69.3944L47.7314 67.9272L45.8598 66.949L43.6627 66.7534L41.6284 67.8293L41.8725 70.7638L40.4892 72.0354L38.1294 71.5463L35.7696 72.0354L31.2941 74.5786L29.3412 74.1873L28.6088 71.8398L26.9814 70.4704L22.5872 71.6441L15.2637 78.3934L12.0088 82.5994L10.7068 85.1426L9.0794 87.2945L6.96371 87.6858L5.90587 85.1426L4.44118 82.795L2.40686 81.0343L2 78.4911L2.24411 77.0239L2.65097 76.0458L2.73235 75.0676V73.0135L2.89508 72.1332L3.79018 69.59L4.03431 67.9272L4.11567 66.949L4.03431 66.0687L2.97646 62.3517L2.89508 60.3954L3.30194 54.1353L3.79018 52.179L5.01077 50.5161L6.23136 49.8314L9.0794 48.6576L9.9745 47.6795L10.2186 46.7013V45.7232L10.3 44.745L10.7882 43.7669L11.4392 43.2778L12.9039 42.5931L13.5549 42.1041L14.2872 40.9303L15.4265 38.0937L16.1588 37.0177L17.3794 36.4308L18.6814 36.6264L22.75 38.3871L24.1333 38.7784H25.5167L29.5853 37.3111L30.2363 37.2133L31.2127 37.4089L31.7823 37.2133L32.352 36.9199L37.4784 34.4745L38.6176 33.692L39.5127 32.7138L40.3264 31.4422L40.9774 29.7794L42.1167 23.0302L42.7676 20.7804L44.0696 18.8241L48.3824 15.4984L49.6843 14.0312L50.6608 11.7815L53.4274 13.4443L54.9735 13.9334L58.2284 14.0312L59.5304 15.205L60.2627 16.9657L60.1 18.4329L59.1235 19.3132L57.4147 21.563L57.4961 23.6171L62.0529 25.0843L64.1686 26.6493L67.3421 30.6597L69.4578 30.9532L71.4108 29.6816L72.9568 27.7253L72.8755 25.5734L71.8176 23.6171L72.8755 19.6067H77.5951L79.7921 20.5848L81.501 19.5088L81.8264 16.77L82.8029 14.3247L86.7088 11.5858L91.1843 12.6618L93.5441 13.9334L95.6598 15.7919L96.8804 17.846L98.6706 18.7263L103.634 16.2809L105.75 12.3684L110.063 11.8793L117.305 5.42352L125.93 2L128.127 3.27158L128.046 6.10822L126.907 8.65139L126.581 11.2924L127.883 13.7378L129.836 15.4006L134.23 17.2591L136.183 19.1176L137.729 21.6608L142.042 23.6171L146.68 25.1821L153.027 33.3007L154.248 43.7669L153.027 49.538L154.004 58.5369L153.109 61.3736L150.505 62.1561L149.203 64.308L152.621 67.6337L157.503 68.4162L160.27 72.3288L161.409 73.1113L164.013 73.796L165.315 73.5026L164.582 78.3934L162.548 82.8928L163.362 84.8491L165.233 86.1207L166.698 87.6858L168 89.5442L167.43 91.6961L167.105 94.2393L165.559 96.5869L163.362 97.8585L160.27 102.065L159.13 107.738L160.758 113.411L158.317 123.29V129.061L157.991 131.996L158.479 134.539L155.957 138.745V140.017L155.794 141.386L154.085 142.951V153.613L156.526 158.015L159.456 161.732L161.816 165.742L161.572 170.339L160.27 174.643L157.991 177.773L156.364 182.273L154.411 186.479L151.807 189.707L149.366 190L147.901 188.239L147.087 186.576L145.867 185.109L143.344 181.294L137.811 179.436L135.858 178.458L134.149 180.316L130.65 186.381L125.768 189.609L124.14 182.37L123.489 173.567L121.048 171.806L119.095 169.85V167.992L118.525 166.231L116.573 163.981L112.748 164.764L110.388 170.046L108.273 171.122L106.157 170.046H105.18L104.123 169.85L102.576 168.383L100.624 168.579L99.1588 167.6L98.2637 165.644L96.4735 166.622L94.6019 167.111L93.4627 164.568L91.1843 163.59L89.2314 166.818L87.9294 168.089L86.3833 167.307L84.6745 166.916H82.9657L77.1069 167.698Z" fill="white" stroke="#FCFCFC" stroke-width="3" stroke-linecap="round" stroke-linejoin="round"/>
</svg>
