<svg width="146" height="182" viewBox="0 0 146 182" fill="none" xmlns="http://www.w3.org/2000/svg">
<path d="M37.8165 2.04089L38.2618 1.8922L42.567 1.81785L46.2041 2.41264L48.134 1.4461L50.2124 1L51.9196 2.41264L53.6268 4.04833L57.1155 6.13011L60.901 7.54275L62.9794 8.0632L64.9093 8.80669L66.7649 10.0706L68.8433 11.0372L70.9216 11.2602L72.7031 10.2193L73.5196 8.658L74.633 7.3197L76.0433 6.79926L77.0082 8.0632L76.8598 9.84758L76.0433 11.5576L75.8206 12.5985V13.7138L75.5979 14.606L75.301 15.4238L74.633 17.5799L74.3361 19.8848L76.1917 23.1561L77.4536 26.7993L77.0082 30.9628L76.4144 33.119L76.1917 35.2751L77.899 44.5688L77.6763 48.8811L75.1526 50.2193L71.2928 48.9554L67.2845 49.9963L65.2804 53.5651L65.6515 75.7212L63.7216 84.7175L61.2722 90.0706L60.7526 95.5725L62.6082 97.6543L65.132 98.4721L67.5814 96.9108L69.5113 94.4573L80.2 89.6245L81.3876 89.3271L82.5753 89.6245L83.466 90.145L84.134 89.9219L84.8021 89.6989L85.6185 90.2193L86.2124 91.1115L87.4742 91.0372L88.5876 90.2937L90.8887 89.8476L93.1897 90.7398L94.0804 91.5576L95.268 91.7807L98.2371 91.0372L99.499 90.9628L100.538 90.368L100.983 89.0297L101.948 88.0632L103.21 87.9889L104.398 88.5093L105.734 88.5836L108.926 88.1376L110.262 89.2528L111.078 90.8885L115.977 93.0446L119.318 93.7881L127.854 93.1933L128.744 92.6729L129.709 92.4498L133.866 93.119L135.944 93.8625L138.616 96.4647L138.32 100.405L136.909 104.717L138.023 106.502L140.175 107.32L144.48 114.234L145 123.007L143.293 121.892L141.289 121.967L140.472 122.636L139.062 124.271L138.468 125.164L137.058 126.353L135.054 126.502L133.124 127.022L123.4 131.186L119.689 131.855H114.047L112.563 131.335L111.821 129.327L111.746 127.097L112.118 122.636L111.153 120.703L109.371 119.587L107.367 115.944L106.625 111.632L103.285 109.625L99.2021 109.476L82.5753 112.896L74.8557 116.39L73.9649 120.033L77.5278 122.71L81.5361 124.42L85.8412 125.089H86.8062L87.5484 125.535L87.9938 126.576L88.7361 127.022L90.2948 127.468L90.9629 129.104L91.4825 131.483L91.6309 133.788L88.9588 137.208L91.2598 140.108L92.5216 143.9L90.9629 145.089L87.0289 146.204L83.2433 148.063L79.3093 147.543L77.5278 148.138L76.5629 151.929L76.8598 156.242L76.6371 158.249L76.934 160.182L79.6062 163.677L81.3134 167.543L79.9031 171.26L78.2701 172.524L76.3402 173.119L69.8825 174.532L67.8783 175.201L67.2845 177.208V179.439L66.5423 181L62.6825 180.777L61.3464 179.587L62.2371 175.349L62.534 171.186L61.3464 169.848L59.9361 168.732L59.0454 166.799L58.8227 164.569L59.1938 160.331L61.2722 156.688L67.8041 152.97L67.9526 151.929L69.3629 150.517L69.734 149.699L69.8825 148.732V146.576L71.7381 136.316L71.6639 134.903L68.0268 133.788L61.1979 129.327L55.4825 127.766L49.6928 128.658L34.2536 129.03L31.2845 128.732L25.0495 125.758L20.0021 122.636L14.8804 122.041L14.4351 122.487H14.3608L13.8412 122.561L13.3959 122.487L12.0598 121.223L1.96495 106.874L1.14846 105.312L1 103.974L2.18763 100.926L2.48454 100.033L3.15258 97.4312L7.0866 90.7398L8.34845 89.4015L11.2433 87.6915L11.9113 87.0223L12.2825 85.7584L11.9856 84.6431L11.3175 83.5279L9.98145 82.1152L9.75876 81.9666L9.53608 81.8178L9.23918 81.2231L9.09072 80.6283L8.71959 77.3569L9.0165 76.3903L9.61031 75.5725L10.5753 74.6059L11.5402 72.6729L11.2433 70.7398L9.90722 66.5019V63.974L11.3918 56.3903L10.8722 42.0409L11.0948 41.4461L23.4165 32.1524L27.0536 28.658L36.035 14.4573L37.8165 2.04089Z" fill="white" stroke="#058D6C" stroke-width="1.8123" stroke-linecap="round" stroke-linejoin="round"/>
</svg>
