<svg width="119" height="162" viewBox="0 0 119 162" fill="none" xmlns="http://www.w3.org/2000/svg">
<path d="M7.76833 96.8L3.00717 92.2713L2 88.3465L2.4578 84.5223L3.55654 80.7987L5.75399 77.9809L8.9586 77.0752L12.8957 74.8611L15.9172 74.0561L15.7341 71.037L13.9944 66.2064L13.3535 65.2L13.0788 63.9924L13.4451 62.5834L13.5366 61.0739L13.262 58.558L11.797 53.5261L12.1632 37.2229L11.5223 29.6752L12.3464 26.1529L17.6569 22.0267L29.8344 16.9949L32.3981 14.3783L34.6871 6.83058L36.3352 3.50955L39.5398 2.50318L42.9276 2.40254L46.4068 9.3465L46.9562 10.6548V11.8624L47.2309 12.8688L48.4212 13.6739L49.2452 12.1643L50.4355 8.34013L52.5414 4.91847L56.0207 2.90573L60.1409 2L64.2611 2.70446L68.7476 4.01274L70.3957 4.81784L70.6704 6.83058L70.5788 9.84968L71.2197 12.5669L72.8678 13.9758L74.699 15.0828L76.4387 16.3911L77.3543 18.5045L77.2627 21.2217L77.8121 23.5363L81.6577 25.0459L86.0526 25.549L88.9825 29.5745V36.7197L88.7078 38.1287L87.9753 39.135L87.3344 40.3427L88.3416 42.0535L88.9825 42.6573L89.715 42.9592L91.3631 42.2548L94.2014 41.7516L94.7508 42.0535L95.2086 43.9656L95.3002 45.9783H99.6035L102.076 44.0662L105.28 44.4688L106.013 46.7834L107.111 51.4127L106.928 54.0293L106.104 56.5452L105.738 58.3567L105.189 60.1682L102.625 64.2943L101.709 69.0242L102.808 70.1312L105.83 69.8293L107.661 70.1312L108.485 70.735L110.041 75.1631L111.049 76.8739L112.971 79.0879L114.528 80.1949L115.443 80.4968L117 81.5032L116.359 83.3147L110.225 89.4535L109.126 91.5669L108.485 93.8815L108.393 94.9885L108.485 97.1019L108.302 98.1083L103.083 100.423L101.801 100.725L100.611 100.121L99.512 99.3159L94.9339 101.631L87.7922 109.883L85.0454 114.311L83.2142 116.525L80.742 117.833L76.6218 118.135L74.5159 122.966L74.0581 128.803L74.2412 135.344L76.2556 141.282L79.3686 145.408L79.918 150.741L77.9037 155.874L74.7906 159.698L73.3256 160L70.3957 159.296L69.1139 158.49L66.0008 154.465L60.5072 153.66L56.6616 150.238L58.1266 148.024L61.0565 147.219L62.0637 144.301L60.965 135.042L62.3384 129.104L60.965 118.336L53.8233 109.983L48.6043 108.373L43.7516 106.361L42.012 103.744L39.8145 101.832L34.8702 99.9198L32.6728 98.2089L31.2078 95.693L31.5741 92.9758L32.8559 90.3592L32.9475 87.4408L30.4753 86.1325L20.7699 89.6548L12.621 96.2968L7.76833 96.8Z" fill="white" stroke="#FCFCFC" stroke-width="3" stroke-linecap="round" stroke-linejoin="round"/>
</svg>
