<svg width="174" height="141" viewBox="0 0 174 141" fill="none" xmlns="http://www.w3.org/2000/svg">
<path d="M60.2046 2.56814L63.2213 2L64.3748 2.16233L64.8184 2.48697L67.3027 4.02903L68.7223 4.27253L69.787 4.7595L70.5856 5.57111L72.2714 8.16825L72.3601 9.3045L72.4488 9.79147L73.5136 11.7393L73.691 12.2263L74.0459 12.3075L74.3121 12.8756L74.4008 13.4437L74.5783 15.2293L75.4656 18.2322L76.9739 21.0729L77.5063 21.3164L84.1607 25.9425L84.9593 26.7541L87.6211 30.6499L90.1054 33.1659L90.9927 33.4905V33.8963L91.9687 34.6268L92.2349 35.0326L93.3883 33.9775L93.8319 32.3543L94.5418 30.8122L95.429 30.1629L96.3163 30.6499L96.6712 29.676L96.4937 28.2962L97.5585 27.3223L98.9781 26.8353L100.93 25.1309L101.817 22.615L105.987 22.5338L108.472 22.7773L110.867 22.3715H111.489L110.867 24.4816L109.27 28.4585L112.465 33.734L112.731 37.7921L111.755 46.9633L110.867 48.9112L109.714 50.6155L108.915 53.1315L108.827 55.7287L109.359 55.891L110.956 55.2417L113.263 53.9431L114.594 52.888L115.038 52.6446L115.126 52.3199L118.587 50.372L132.162 46.1517L134.38 45.9893L146.269 46.8821L155.763 46.0705L156.828 46.1517L157.715 46.314L157.36 49.8851L157.538 53.2127L158.336 56.2968L160.377 58.9751L162.329 60.8418L163.66 63.0332L163.926 65.3057L163.748 72.4479L164.813 79.9147L165.612 82.2684L167.83 83.4046L170.314 83.08L172 84.1351L170.669 86.3265L169.871 88.112L169.693 90.141L168.54 95.0918L165.7 99.3122L156.828 103.776L155.763 106.211L155.586 109.052L153.722 109.539L151.593 108.646L148.665 106.454L146.092 105.318L143.874 103.451L140.591 103.289L138.195 104.425L135.977 105.967L133.936 106.698L132.694 107.672L128.79 112.298L125.507 115.139L119.829 118.71L117.344 121.55L114.328 123.661L112.642 123.011L111.577 121.55L111.134 121.145L110.867 120.252L110.779 119.765L110.69 119.197L108.383 120.576L106.609 123.823L102.084 127.8L100.486 130.722L98.9781 136.809L96.7599 138.757L95.0741 139L93.2996 138.675L91.7912 138.594L91.1701 138.757V137.864L91.0814 136.971L89.7505 133.4L89.4843 130.803L89.7505 122.849L89.3956 119.603V118.547L90.1941 116.194L91.88 112.704L92.0574 112.136V109.457V108.808L92.6785 107.347L92.9447 104.101L93.8319 101.828L94.0981 100.692L94.0094 99.5557L93.8319 98.9876L92.7672 96.7962L92.5898 96.3093L90.8152 95.8223L89.928 95.3353L89.7505 94.2802L88.952 93.3875L87.976 92.657L86.2014 92.8193L83.451 93.8744L80.0793 94.4426L79.1921 93.2251L78.9259 92.0889L78.0386 90.9526L76.5303 87.5439L74.8445 86.1641L73.4248 86.0018L70.8518 86.5699L69.3434 86.4888L67.3914 84.4597L65.1733 83.08L64.1973 82.2684L63.4875 81.2133L62.1566 81.4568L60.8257 82.2684L57.7203 83.4046L54.6148 83.4858L52.929 81.3756L53.7276 78.6973L53.1952 77.2364L50.977 76.5871L51.2432 75.3697L50.0898 74.7204L48.7589 74.9639L47.6054 74.3957L43.4353 70.2565L40.0637 65.468L40.5073 63.0332L38.4666 62.1404L33.0543 63.0332L30.0376 62.2216L24.714 59.8679L23.6493 58.9751L22.6733 59.0563L20.4551 57.1896L19.4791 54.5113L20.0115 51.9141L21.9635 49.6416L23.4718 48.83L23.5606 47.4502L22.5846 46.801L21.3424 46.6386L18.7693 46.8821L16.3737 47.3691L14.5992 48.4242L13.2683 47.9372L13.1795 45.3401L14.5104 43.6357L14.0668 39.9023L9.54175 37.3051L6.79124 35.0326L6.17016 33.8963L4.92798 32.9224L3.95199 31.8673L2 28.2962L2.44363 26.2672L10.1628 17.5018L13.1795 14.9858L15.8413 15.9597L19.2129 18.9627L25.9562 21.3164L32.6106 22.7773L41.9269 23.1831L49.2912 24.7251L51.5094 24.3193L52.929 22.7773L53.5501 20.9917L54.6148 14.58L57.3653 5.89575L60.2046 2.56814Z" fill="white" stroke="#FCFCFC" stroke-width="3" stroke-linecap="round" stroke-linejoin="round"/>
</svg>
