<svg width="154" height="153" viewBox="0 0 154 153" fill="none" xmlns="http://www.w3.org/2000/svg">
<path d="M15.371 25.212L15.7477 25.126L17.3484 24.4373L20.6441 21.6829L25.0697 16.9486L26.5763 16.6904L34.0151 17.9815H36.6516L38.8173 17.2929L64.806 2.91798L67.2542 1.97113L69.7024 1.71289L87.7816 4.12306L89.759 4.81168L90.5122 5.32815L92.2071 6.79146L94.1846 7.91047L96.6328 9.71809L97.6686 10.1485L99.7401 10.6649H99.8343L100.776 11.0953L101.718 11.87L103.507 13.8498L110.569 19.7891L111.134 20.1335L111.887 20.3917H112.075L112.452 20.2195L113.205 19.7891L114.053 19.617L115.842 19.3588H116.689L118.572 19.7891L120.267 20.5638L123.375 22.7158L124.787 24.093L126.859 27.1918L128.083 28.569L130.719 29.9463L149.458 35.1109L152 35.3692L151.906 35.9717L151.529 37.0046L150.305 37.435L149.458 38.2097L148.799 39.1566L148.234 40.4477L147.48 41.5667L144.279 43.8908L140.889 45.5263L137.028 46.3871L134.203 46.1288L133.168 45.2681L132.226 44.2351L130.06 45.4402L128.365 45.5263L126.576 44.8377L124.976 43.8908L122.998 40.8781L121.774 37.435L120.456 36.2299L109.439 36.6603L104.731 36.1439L99.646 36.2299L92.0188 37.3489L90.9831 39.0705L90.4181 43.5465L90.6064 47.8504L94.3729 50.0023L100.023 50.0884L101.529 51.6378L102.377 53.6176L98.8927 53.7036L95.597 54.5644L93.9021 57.405L91.548 63.8608L88.9115 66.0988L76.388 70.4027L70.9266 73.9318L70.0791 76.9445L70.7382 83.4004L70.3616 97.3449L71.8682 101.649L72.1507 103.801L72.0565 105.092L71.6799 106.297L71.9623 107.33L72.6215 108.191L74.4105 112.322L74.5989 114.905L71.4915 115.593L67.4426 117.487L64.1469 118.262L61.887 120.672L60.7571 123.857L60.2862 127.128L61.322 130.485L66.2185 134.358L63.7703 137.801L58.0264 139.953L55.9548 139.179L54.5424 137.371L52.0942 135.735L49.3635 134.616L44.1845 133.67L39.6648 136.08L38.5348 138.232L38.1582 140.642L36.1808 141.589L33.6384 140.728H28.177L26.9529 144.257L28.177 145.979L28.2712 147.872L26.4821 149.594L24.2222 150.713L21.774 150.455L18.1017 146.925L15.6535 145.548L10.3804 144.257L10.2862 142.449L12.2636 140.47L13.3936 139.695L13.5819 138.404L12.7345 136.854L11.2279 135.821L7.46138 135.735L5.67231 135.305L2.47081 133.842L3.60076 130.915L4.25988 127.816L3.97741 125.492L4.44822 123.254L2 119.122L4.73069 107.244L8.87381 105.436H14.1469L14.6177 105.608L15.1827 106.211L15.6535 106.383L16.7834 105.867L19.7966 103.629L21.4915 102.165L21.8682 100.013L23.0923 98.8082L25.3522 99.4108L27.5179 98.6361L26.7646 94.6765L22.8098 91.7499L20.3616 90.7169L18.9492 89.0815L20.0791 87.0156L21.6798 83.1421L22.1507 81.4206L21.6798 79.3547L21.0207 77.461L20.6441 74.0179L19.6083 70.6609L17.6309 67.1317L18.0075 63.0861L16.4068 59.7291L14.1469 32.1843L15.371 25.212Z" fill="white" stroke="#FCFCFC" stroke-width="3" stroke-linecap="round" stroke-linejoin="round"/>
</svg>
