<svg width="193" height="124" viewBox="0 0 193 124" fill="none" xmlns="http://www.w3.org/2000/svg">
<path d="M52.4675 2.23822L52.7562 2.16538L57.5926 1.21852L66.3269 1L70.0805 1.50986L71.5964 2.8209L90.0034 24.8173L90.7974 25.4728L91.6636 25.9827L93.5404 26.0555L94.4788 29.7701L93.9014 34.286L93.8292 38.4376L95.6338 41.5696L99.6761 41.0597L104.44 41.7881L104.512 42.1522L104.657 44.2645L104.585 45.357H104.657H104.729L104.801 45.2842V45.2114V46.3039L105.018 47.2507L105.451 47.9791L106.317 48.6346L107.183 48.926L109.926 49.4358L111.442 50.0185L112.092 51.1111L112.164 52.6406L111.875 54.3158L112.02 55.991L112.958 57.0836L114.474 57.5206L116.206 57.4478L118.372 56.7922L120.826 55.3355L124.363 54.243H125.157L125.879 54.3887L127.178 55.0442L127.251 55.3355L128.261 55.7725L130.066 57.0836L132.953 58.4675L133.747 59.0502L134.686 60.2884L135.624 61.3081L135.84 61.8908L135.913 62.4734L135.84 63.0561L135.913 63.7116L136.346 64.44L136.995 64.877L137.789 65.1684L142.987 66.0424L146.668 65.8239L147.462 65.9696L148.112 66.3337L148.689 66.7708L149.7 67.7905L150.35 68.3003L150.999 68.6645L151.721 68.8102L153.454 68.883L154.175 69.0287L154.969 69.32L155.691 69.757L155.98 69.9755L156.702 70.9224L157.857 71.9421L158.362 72.5248L158.795 73.1075L159.3 74.0543L159.517 74.3457L160.239 74.9284L161.105 75.2197L164.209 75.2925L164.642 75.3654L165.869 75.8752L166.302 75.9481L167.024 77.1134L167.818 78.206L168.396 79.2257L168.757 79.5898L169.406 79.8084L172.294 79.7355L174.748 80.0997L175.542 80.1725L176.192 80.0269L177.924 79.1528L179.296 78.9343L185.287 78.8615L186.081 79.0072L186.947 79.2985L188.607 80.9009L188.968 81.0466L192 80.4639L189.69 83.4502L187.452 91.2436L186.586 96.9976L186.081 98.6L184.926 99.9839L183.121 100.348L177.13 98.9642L169.551 98.6L164.137 97.289L158.651 95.1767L155.908 92.4818L153.742 91.6078L151.288 93.8657L145.008 101.732L144.647 103.553L146.235 106.758L147.029 107.704L148.04 108.579L148.545 109.598L150.783 111.638L154.464 113.968L154.825 117.319L148.978 117.464L147.029 118.12L145.874 119.504L145.513 121.325L144.864 122.636L144.358 122.782L143.925 122.636L141.615 123L140.244 122.709L138.078 122.563L134.469 120.232L131.076 121.252L129.921 120.815L129.633 119.868L129.055 119.431L128.189 119.285L125.085 119.722L123.425 118.63L122.27 116.663H120.032L117.867 117.537L114.763 117.829L114.402 118.266L114.33 117.829L112.814 118.193L111.37 118.776L108.338 119.431L104.729 119.067L101.192 119.285L100.326 118.703L99.3874 118.484L98.7377 117.392L97.1497 112.075L95.1285 108.87L93.6848 107.923L92.4577 106.758L90.5087 103.844L88.6319 96.3421L86.6829 93.4286L81.8465 82.5033L81.1247 79.08L81.7744 75.7296L83.0015 74.5642L83.8677 73.1075L85.2392 71.7236L87.0438 70.6311L88.9206 67.9361L87.9822 65.751L85.3114 67.4263L83.7955 67.4991L79.8254 66.5522L73.3288 64.2215L70.8745 62.9104L68.7812 61.0896L67.554 58.6131L65.966 56.5737L63.5117 55.4812L60.8409 55.6997L58.3866 57.5206L57.0151 60.2155L56.5098 63.8573L55.4271 65.0227L54.1999 65.9696L42.9392 71.7236L40.5571 73.5445L38.3915 74.637L35.9373 76.5308L29.4407 79.4442L28.791 79.5898L28.2135 78.9343L27.5639 78.5702L27.0586 77.9875L26.1924 77.769L25.3261 77.9146L24.099 78.2788L22.8719 79.0072L20.6342 80.9737L19.5514 81.6293L18.6852 82.3576L18.3243 82.9403L17.0249 83.3773L14.0654 85.8537L13.0548 87.0919L11.7555 88.0388L7.42441 89.0585L6.34165 88.9128H5.25888L2.44369 91.4621L2.08277 91.7534L1 78.1331V78.0603V77.4776L1.28874 77.0406L2.22713 76.6764L2.51587 76.3851L2.58806 75.8752L2.29932 75.0012L2.22713 74.4913L2.44369 73.6173L3.16553 72.0149V71.2137L2.94898 70.7767L2.66024 70.7039L2.44369 70.5582L2.3715 70.1212L2.51587 70.0484L3.09335 69.1015L3.23772 68.7373L3.59864 67.2078L3.67082 63.6388L3.52645 62.1821L7.71315 62.5463L8.435 62.4006L9.01247 62.0364L9.44558 61.5266L10.0231 61.1624L10.6005 61.0167H12.333L12.9104 61.0896L13.4879 61.3809L14.0654 61.7451L14.5707 61.9636H15.2203L18.9739 61.0167L20.2732 60.0699L21.1395 58.3218L22.9441 52.5678L24.099 50.3827L24.3878 49.2173L24.4599 45.5755L24.2434 44.7015L23.5215 42.8806L23.1606 41.351L23.3772 39.8215L24.4599 38.0734L24.8209 37.7821L25.6871 37.4907L26.1202 37.1266L29.4407 32.6836L29.5128 32.3922L29.2241 31.6639L29.1519 31.2997L29.585 29.9158L30.4512 29.6245L31.534 29.843L32.4724 29.9158L34.277 28.8961L34.6379 27.4394L34.2048 25.7642L33.5552 24.0161L33.3386 22.9236L33.483 21.6126L33.9883 20.52L34.8545 19.8645L38.7525 18.1893L40.918 17.6794L44.1663 18.0436L45.1769 17.0967L46.6206 14.4018L48.353 12.2896L48.9305 11.197L49.2914 6.38985L49.6523 5.44299L50.4463 4.64179L51.2404 4.27761L51.9622 3.76777L52.4675 2.52956V2.23822Z" fill="white" stroke="white" stroke-width="0.902603" stroke-linecap="round" stroke-linejoin="round"/>
</svg>
