<svg width="175" height="110" viewBox="0 0 175 110" fill="none" xmlns="http://www.w3.org/2000/svg">
<path d="M2.82409 74.5916L3.51084 75.0039L6.94458 75.8289L10.5157 74.5916L13.1253 77.4785L15.7349 77.0662L18.6193 71.2917L20.5422 64.6926V60.1558L21.641 58.5059L44.3036 61.3931L50.4843 58.9182L51.9952 53.5564L53.094 38.2957L54.6048 31.6965L56.253 26.7471L57.7639 10.6616L58.4506 6.12451L61.6096 2L64.0819 4.47486L68.8892 11.8989L71.2241 20.9729L74.9325 21.3853L76.9928 20.5603L78.2289 15.1985L78.641 10.6616L79.4651 7.77442L140.311 6.94946L146.492 11.8989L145.393 20.148L142.783 25.9221L141.959 33.7588L143.058 41.5955V45.3074L146.08 52.7314L149.239 47.7822L152.398 41.5955L155.831 39.1206L158.716 42.4202L159.814 49.0195L158.853 55.6187L152.947 65.5176L153.084 73.354L155.419 77.8911L158.441 80.3657L159.814 84.0779L161.6 87.3774L164.072 85.7275L169.978 86.5525L172.863 89.4397L173 97.6887L172.588 106.35L172.451 107.175L150.063 94.8015L123.417 88.2024L79.053 94.8015L76.7181 93.5642L75.4819 90.677L74.3831 87.3774L72.8723 84.0779L73.8337 82.428L74.6578 82.0156L75.2072 82.428L75.894 84.0779L77.4048 79.5408L78.0916 81.1907L78.2289 86.1401L78.641 90.677L82.3494 80.3657L82.8988 80.7783L83.3108 83.2529H84.1349L85.5084 82.0156L87.4313 81.603L89.2169 80.7783L90.8651 78.3035L92.2386 73.354L92.3759 69.6421L92.2386 66.3425V63.4553L93.3374 62.6304H97.5952L99.7928 60.9805L104.325 56.856L105.699 58.0935L108.034 55.2063L110.094 51.4941L111.605 46.5447L112.154 39.9456L113.528 38.2957L122.181 34.5837L121.357 32.5215L120.67 31.6965H120.12L119.296 32.1089L113.39 27.9844L107.484 34.5837L101.99 44.4824L96.9084 49.4319H94.9855L93.8868 49.8445L90.3157 55.6187L89.0795 57.2686L87.8434 57.6809L86.4699 58.0935L86.1952 57.2686L84.959 56.0313H83.7229L83.0361 54.3813L82.6241 53.5564L82.2121 49.4319L82.0747 45.72L82.8988 38.7083V34.5837L81.1133 37.471L79.8771 40.7705L77.5422 48.1946L76.7181 49.4319H75.6193L74.7952 50.2568L74.3831 52.7314L74.5205 54.7937L75.0699 59.7432V62.6304L74.6578 65.9299L73.2843 72.5293L72.8723 76.2412L72.4602 78.7161L71.7735 80.3657L71.3614 82.428L71.9108 84.9028L72.4602 86.5525L72.7349 88.2024L72.8723 90.2647L73.4217 91.9143L72.8723 98.926L66.8289 100.576L55.1542 98.926L41.4193 103.875L25.3494 101.401L2 108L2.13735 88.6147L2.82409 74.5916Z" fill="white" stroke="#FCFCFC" stroke-width="3" stroke-linecap="round" stroke-linejoin="round"/>
</svg>
