<svg width="215" height="127" viewBox="0 0 215 127" fill="none" xmlns="http://www.w3.org/2000/svg">
<path d="M213 79.9477L210.815 83.3189L207.59 85.3621L205.405 85.4643L203.22 85.1578L200.827 84.4427L198.538 84.034L196.769 83.1146L192.816 81.7865L190.943 82.6038L189.59 84.3405L188.758 86.3837L188.446 88.8356L192.608 94.0457L192.92 98.0299L192.712 99.358L193.336 100.788L193.648 102.934L191.983 104.262L180.539 111.821L177.833 114.069L162.851 103.036V103.547L159.938 103.751L151.302 103.444L145.58 102.218L129.661 97.0083L119.257 98.132L114.887 101.81L113.535 107.326L115.407 112.945L119.153 121.016L119.673 123.672L118.633 125L118.008 124.898L117.072 124.591L116.136 124.081L114.263 122.65L110.517 120.607L108.749 118.666L106.46 118.053L103.963 117.747L101.465 117.032L97.1997 114.886L95.1188 114.171L88.4601 113.047L87.1075 112.537L83.1539 110.187L80.4487 109.472L74.8304 108.859L72.1253 108.246L68.3797 106.918L63.2816 106.407L59.3279 105.385L58.2875 105.181L57.039 105.079L45.9063 106.101L31.9645 104.977L29.3634 105.181L13.4448 110.493L9.38709 112.945L9.28304 113.354L8.76282 113.66L7.20217 114.988L4.49707 116.623L2.62427 117.44L2 117.236L2.10405 113.967L3.04043 110.8L4.39302 108.654L5.43345 106.203L6.57794 94.6586L6.26579 89.5507L2.52022 82.9103L4.39302 77.9045L5.1213 75.2483L16.4621 73.5116L27.5947 70.549L37.6869 65.5432L41.2244 61.7633L43.9295 57.3704L47.3629 48.0739L51.0044 32.2392L50.7964 24.5772L51.0044 19.6736L52.7732 11.2965L54.2298 8.7425L55.1662 8.43603L56.1026 7.82307L56.3107 6.39285L56.1026 4.75829L58.3915 3.73669L59.536 5.77988L61.4088 6.80148L63.9058 6.59718L65.8827 8.12957L67.2352 8.33387H68.4838L71.1889 9.45763L73.894 8.33387L76.9112 2.81726L81.8013 2L84.2983 4.34966L85.0267 6.18851V8.12957L87.5237 10.1728L90.645 12.0116L91.4773 21.206L93.5582 28.7658L99.8008 25.3945L104.275 19.0606L106.46 17.1196L108.957 18.1412L116.032 20.0822L119.257 24.0664L120.818 25.5988L121.858 27.3355L123.731 29.1744L126.852 28.8679L130.181 25.4967L132.679 21.1038L134.759 16.4045L137.673 13.1354L142.251 15.2807L146.1 18.1412L147.349 23.4535L151.094 27.2334L156.296 28.255L161.603 28.1528L162.955 27.9485L164.204 27.4377L166.701 26.8247L168.782 28.1528L170.238 29.9917L169.822 32.2392L168.678 34.8953L165.348 39.3903L163.475 41.1271L160.562 42.0465L158.689 44.8048L156.713 47.2566L155.36 50.5258L156.921 54.3056L158.793 56.9618L159.418 60.1287L158.897 63.9086L160.666 67.1777L167.221 70.549L172.007 71.8771L179.498 71.9792L186.677 70.6511L191.671 69.2209L196.665 69.3231L205.821 73.2051L210.087 75.8613L213 79.9477Z" fill="white" stroke="#FCFCFC" stroke-width="3" stroke-linecap="round" stroke-linejoin="round"/>
</svg>
