<svg width="191" height="114" viewBox="0 0 191 114" fill="none" xmlns="http://www.w3.org/2000/svg">
<path d="M190 71.9767L188.043 75.0465L185.154 76.907L183.197 77L181.24 76.7209L179.096 76.0698L177.046 75.6977L175.462 74.8605L171.92 73.6511L170.243 74.3953L169.031 75.9767L168.286 77.8372L168.006 80.0698L171.734 84.8139L172.013 88.4419L171.827 89.6512L172.386 90.9535L172.666 92.907L171.175 94.1163L160.923 101L158.5 103.047L145.08 93V93.4651L142.47 93.6511L134.735 93.3721L129.609 92.2558L115.351 87.5116L106.031 88.5349L102.117 91.8837L100.905 96.907L102.583 102.023L105.938 109.372L106.404 111.791L105.472 113L104.913 112.907L104.074 112.628L103.235 112.163L101.558 110.86L98.2027 109L96.6184 107.233L94.5681 106.674L92.3314 106.395L90.0947 105.744L86.2737 103.791L84.4098 103.14L78.4453 102.116L77.2337 101.651L73.6923 99.5116L71.2693 98.8605L66.2367 98.3023L63.8136 97.7442L60.4586 96.5349L55.892 96.0698L52.3506 95.1395L51.4186 94.9535L50.3003 94.8605L40.3284 95.7907L27.8403 94.7674L25.5104 94.9535L11.2515 99.7907L7.61687 102.023L7.52367 102.395L7.05769 102.674L5.65976 103.884L3.23671 105.372L1.55918 106.116L1 105.93L1.0932 102.953L1.93195 100.07L3.14351 98.1163L4.07546 95.8837L5.10061 85.3721L4.82101 80.7209L1.46598 74.6744L3.14351 70.1163L3.79586 67.6977L13.9542 66.1163L23.926 63.4186L32.966 58.8605L36.1346 55.4186L38.5577 51.4186L41.6331 42.9535L44.895 28.5349L44.7086 21.5581L44.895 17.093L46.4793 9.46509L47.784 7.13951L48.6228 6.86045L49.4615 6.30231L49.6479 4.99999L49.4615 3.51161L51.5118 2.58138L52.537 4.44184L54.2145 5.37208L56.4512 5.18605L58.2219 6.5814L59.4334 6.76743H60.5518L62.9749 7.79069L65.3979 6.76743L68.1006 1.74417L72.4808 1L74.7175 3.13952L75.3698 4.81393V6.5814L77.6065 8.44186L80.4024 10.1163L81.1479 18.4884L83.0118 25.3721L88.6036 22.3023L92.611 16.5349L94.5681 14.7674L96.8048 15.6977L103.142 17.4651L106.031 21.093L107.429 22.4883L108.361 24.0698L110.038 25.7442L112.834 25.4651L115.817 22.3953L118.053 18.3953L119.917 14.1163L122.527 11.1395L126.627 13.093L130.075 15.6977L131.194 20.5349L134.549 23.9767L139.209 24.907L143.962 24.8139L145.173 24.6279L146.291 24.1628L148.528 23.6046L150.392 24.8139L151.697 26.4884L151.324 28.5349L150.299 30.9535L147.317 35.0465L145.639 36.6279L143.03 37.4651L141.352 39.9767L139.581 42.2093L138.37 45.186L139.768 48.6279L141.445 51.0465L142.004 53.9302L141.538 57.3721L143.123 60.3488L148.994 63.4186L153.281 64.6279L159.991 64.7209L166.422 63.5116L170.895 62.2093L175.368 62.3023L183.57 65.8372L187.391 68.2558L190 71.9767Z" fill="white" stroke="#058D6C" stroke-width="0.91678" stroke-linecap="round" stroke-linejoin="round"/>
</svg>
