<svg width="256" height="205" viewBox="0 0 256 205" fill="none" xmlns="http://www.w3.org/2000/svg">
<path d="M10.9211 16.5713L11.4511 16.0717L17.5457 16.7378L23.5521 20.2349L30.9716 23.5654L34.5047 23.8985L52.877 23.4822L59.7666 22.483L66.5678 24.2316L74.694 29.2274L79.0221 30.4764L79.1104 32.0584L76.9022 43.5489V45.9635L76.7256 47.046L76.2839 47.9619L74.6057 49.5439L74.429 50.7096L66.6562 54.8728L64.183 58.9528L63.7413 63.6988L64.0063 66.1968L65.0663 68.3616L66.7445 69.6106L68.1577 71.1094L67.8044 75.7722L66.7445 80.5182L68.3344 81.8505L72.9275 82.1002L73.8107 80.3517V77.8538L74.5174 75.6056L76.9022 74.8563L84.5868 73.2742L86.8833 72.6081L88.8265 71.1926L90.5047 67.0294L88.4732 62.6997L85.2934 58.7862L84.9401 56.6214L85.205 54.3732L84.8517 49.5439L86 45.2974L88.1199 44.6313L92.8013 45.2142L97.306 43.1326L101.987 41.8836L103.842 40.5514L102.341 36.3049L99.6025 33.0576L102.782 29.2274L102.606 26.6462L101.987 23.9818L101.192 22.1499L99.3375 21.6504L98.4543 21.1508L97.9243 19.9851L97.041 19.4855H95.8928L90.7697 18.7361L86 16.821L81.7603 13.8235L82.8202 9.74357L92.0063 5.83015L111.792 2L116.65 2.16653L120.625 4.41466L121.508 9.24399L123.893 13.3239L126.013 14.5729L127.161 16.7378L126.719 21.7336L126.808 24.2316L127.691 26.4797L129.457 27.0626H136.17L140.587 26.3132L152.158 21.6504L154.454 21.0675L156.839 20.901L158.517 19.5688L159.224 18.5696L160.902 16.7378L161.874 15.9884L164.259 15.9051L166.29 17.1541L169.205 20.7345L174.328 28.8944L175.3 33.1408L173.975 33.7237L172.65 35.1392L172.12 36.8045L171.678 42.1334L171.767 43.7987L172.915 46.9627L173.003 47.7121L172.915 48.5447L172.65 49.9602L171.678 52.1251L171.502 52.8745V54.623L171.413 55.4557L170.972 56.2883L170.707 57.5373L171.148 59.7021L173.356 61.2009L174.946 63.1993L176.095 65.3641L178.391 65.0311L180.158 63.1993L181.571 61.0344L185.104 57.454L193.054 51.7088L197.823 50.7096L199.59 51.8753L200.385 53.8736L202.505 54.2067L207.363 52.0418L209.924 51.6255L212.486 52.0418L213.987 50.9594L213.722 48.4615L215.931 47.5456L218.315 47.7121L220.347 48.5447L220.965 49.7937L221.407 54.9561L222.467 55.2059L224.763 54.623L228.473 57.5373L228.562 62.6997L227.678 64.9478L229.18 66.3633L233.95 68.0286L235.893 69.3608L235.804 71.5257L234.126 73.524L231.918 74.9395L229.798 76.5215L227.943 78.6031L225.823 79.9354L224.233 81.7672L227.148 85.4308L232.006 87.3459L236.953 87.9287L246.845 87.7622L250.114 89.9271L251.35 100.169L251.262 102.5L249.495 103.832L247.464 103.999L245.962 105.081L247.287 106.746L249.76 107.413L251.173 108.578L250.644 110.327L251.615 111.992L253.647 112.908L254 114.906L252.498 116.572L251.527 117.404L250.82 118.403L250.644 119.736L250.29 120.985L246.58 123.483L246.05 125.814L247.375 127.812L248.259 128.312L249.407 129.727L249.23 130.643L248.524 132.558L248.965 133.558L250.644 133.058L252.233 133.474L242.782 146.13L242.429 146.214L239.249 144.548L232.978 138.803L228.915 137.554L216.549 138.054L214.959 138.803L214.694 140.552L215.312 186.097L215.666 187.263L217.344 189.927L220.347 190.261L219.464 192.842L217.521 194.59L216.107 195.09L215.047 196.089L215.224 197.505L214.871 198.504L213.987 198.004L213.104 198.67L212.397 200.252L211.956 201.918L210.808 203L210.543 202.584L209.571 201.834V201.418L208.688 201.085L206.215 198.504L203.565 194.507L202.77 193.674L196.145 188.928L195.615 188.679L194.114 185.764L193.23 182.684L193.054 180.852L192.965 180.269L192.7 179.686L192.347 179.603L192.17 179.103L191.11 177.105L191.022 176.605L190.934 175.44L189.256 172.775L188.461 171.942L187.401 171.443L185.987 171.193L183.514 169.611L183.073 169.278L181.924 169.111L178.921 169.694L175.211 170.36L174.77 170.194L172.738 168.362L171.678 168.029L170.707 167.862L163.375 167.946L161.697 168.196L159.577 169.195L158.782 169.361L157.811 169.278L154.808 168.862L151.274 168.945L150.479 168.695L150.038 168.279L149.331 167.113L148.36 165.864L147.476 164.532L146.946 164.449L145.445 163.866L144.915 163.783L141.117 163.699L140.057 163.366L139.174 162.7L138.909 162.367L138.29 161.285L137.76 160.618L137.142 159.952L135.729 158.787L134.845 157.704L134.492 157.454L133.609 156.955L132.637 156.622L131.754 156.455L129.634 156.372L128.751 156.205L127.956 155.789L127.161 155.206L125.924 154.041L125.218 153.541L124.423 153.125L123.451 152.958L118.946 153.208L112.587 152.209L111.615 151.876L110.82 151.376L110.29 150.543L110.202 149.794L110.29 149.128L110.202 148.462L109.937 147.796L108.789 146.63L107.64 145.215L106.669 144.548L103.136 142.966L100.927 141.468L99.6909 140.968L99.6025 140.635L98.0126 139.886L97.1293 139.719H96.1577L91.8297 140.968L88.8265 142.633L86.1767 143.383L84.0568 143.466L82.2019 142.966L81.0536 141.717L80.877 139.802L81.2303 137.887L81.142 136.139L80.347 134.89L78.4921 134.224L75.1357 133.641L74.0757 133.308L73.0158 132.558L72.4858 131.726L72.2208 130.643V129.394V129.478L72.1325 129.561H72.0442H71.9558L72.0442 128.312L71.8675 125.897L71.7792 125.481L65.9495 124.648L61.0032 125.231L58.795 121.651L58.8833 116.905L59.5899 111.742L58.4417 107.496L56.1451 107.413L55.0852 106.83L54.1136 106.08L31.5899 80.9345L29.735 79.4358L25.142 78.8529L14.4543 79.1027L8.53628 80.1852L8.18297 80.2684L8.35963 79.1027L8.18297 78.1036L7.56467 77.2709L3.05994 72.8579L2.08833 71.3591L2 70.1934L3.41325 67.2792L5.09148 64.7813L5.35647 64.0319L5.4448 62.7829L5.62146 62.3666L6.0631 61.7838L7.38802 60.5348L8.71294 60.1185L10.1262 60.3683L14.3659 62.5331L15.4259 62.3666L16.4858 61.1176L16.9275 59.952V56.6214L17.5457 54.9561L19.3123 51.7088L19.7539 50.0435V48.0451V46.4631L19.4006 44.6313L18.7823 43.3823L17.9874 42.8828L17.0158 42.7162L16.1325 42.4665L15.5142 41.8003L14.8959 39.7187L14.5426 38.9693L14.0126 38.4697L13.4827 37.9702L12.9527 37.4706L12.5994 36.638L12.6877 35.5555L14.101 32.1417L14.1893 30.3099L12.8644 24.5646L12.1577 23.4822L11.6278 22.2332L11.3628 20.9842V19.5688L12.0694 17.0708L11.4511 16.5713H10.9211Z" fill="white" stroke="#FCFCFC" stroke-width="3" stroke-linecap="round" stroke-linejoin="round"/>
</svg>
