<svg width="153" height="102" viewBox="0 0 153 102" fill="none" xmlns="http://www.w3.org/2000/svg">
<path d="M2 5.68835L2.51132 5.45373L9.26081 1.85596L16.7262 2.01237L18.6692 4.82801L19.0782 11.5543L20.4077 14.761L22.5552 15.0738L23.3734 11.9453L24.4983 9.36434L27.3617 9.28612L27.873 14.6045L25.0096 20.6269L25.1119 21.8783L26.6458 25.0068L29.8161 27.0403L32.3727 29.5431L35.8497 34.3923L41.372 38.2246L45.5649 39.3196L49.9623 39.1632L53.0302 37.1297L56.2004 31.1855L59.3706 29.5431L62.234 31.1855L63.5635 34.0794L65.8133 35.0962L68.0631 34.1576L70.4152 33.3755L78.0851 33.5319L80.744 36.4258V39.7107L80.9485 40.8057L83.1984 42.0571L85.4482 42.9956L85.9595 44.0124V45.1856L86.164 46.1241L86.6754 46.9844L87.5957 50.504L84.7323 53.5543L82.5848 56.2917L87.2889 56.4481L96.7996 55.5096L101.606 54.571L103.754 53.476L106.208 52.8503L108.56 52.6939L110.912 52.3811L116.332 50.3475L117.968 52.9286L118.582 55.5878L121.752 55.275L124.718 53.8671L128.297 53.7889L130.854 55.4313L131.774 56.9174L132.49 58.4034L132.695 59.4202L133.104 60.2805L135.353 60.3588L138.012 59.1856L139.649 59.5766L141.387 59.6548L142.614 59.1856L144.046 58.8727L147.216 58.6381L148.443 59.8113L146.603 67.6325L145.171 69.1185L138.217 73.0291L134.331 76.1576L132.49 80.1465L132.388 81.9453L133.513 83.5096L134.638 84.0571L137.092 84.6828L138.319 84.8392L142.307 84.9174L145.682 83.3531L146.909 81.9453L148.852 81.2414L150.284 82.8056V87.0291L151 89.8447L150.795 90.6269L149.977 91.409L148.75 91.7219L144.762 93.9118L142.205 94.1464L140.978 94.5375L142.307 95.7107H144.66L148.955 97.1185L149.057 98.761L147.83 99.856L143.228 99.5431L143.126 99.6213L136.376 97.3532L131.365 96.6492L131.467 96.4928L131.774 94.8504L131.672 93.2861L129.524 92.7386L125.127 92.5822L123.286 92.895L121.957 92.2694L120.934 91.5654L118.684 91.0962L116.946 90.2358L116.844 88.7498L121.241 86.8727L121.957 85.6213L121.139 84.3699L118.991 83.7442L116.434 84.2135L114.082 85.3867L111.73 86.3252L109.48 84.9174V84.2135L108.662 82.7274L109.276 81.2414L111.219 80.1465L112.037 78.5822L107.435 77.6437L62.1318 77.8001L61.5182 78.3476L61.2114 79.2079L60.291 80.2246L58.757 80.3811L55.9959 80.3029L54.2574 78.5822L50.6781 77.1744L48.8373 76.7051L46.4852 77.4872L45.9739 78.3476L44.849 81.3978L43.6218 82.3364L42.4969 83.5878L41.6788 86.4816L40.5539 87.4984L35.952 87.9677L19.0782 87.4202L18.2601 87.7331V88.5934L16.8284 89.8447L14.6809 90.9397L12.7378 91.0179L10.7948 90.4705L8.1359 90.7051L5.57927 90.5487L5.06795 90.4705L5.37474 89.2973L5.68154 88.6716L7.11325 85.4649L7.21551 84.2135L6.60192 81.7107V80.4593L7.52231 79.2079L8.85175 78.2693L9.8744 77.8001L10.2835 77.0962L9.97666 74.3587L9.8744 73.733L9.46534 73.4984L8.44269 73.4202L7.62457 73.1855L7.01098 72.8727L6.39739 72.247L5.98833 71.0738L6.19286 69.7442L7.01098 67.2414L6.70419 64.7386L5.57927 62.4704L5.37474 60.2805L7.42004 58.1688L8.23816 57.856L9.26081 57.6213L10.0789 57.3085L10.3857 56.6045L9.8744 56.0571L7.93137 54.8057L7.21551 54.18L6.90872 53.3978L7.01098 52.9286L7.31778 52.5375L8.03363 51.4425L8.64722 50.8168L8.95401 50.2694L9.05628 49.409L7.42004 34.7051L7.62457 34.0794L8.1359 33.8448H8.95401L10.6925 34.0794L10.897 33.923L10.9993 33.6101L11.1016 33.0627L11.3061 30.5598L9.66987 28.3699L7.31778 26.2582L5.7838 24.0682L5.37474 21.7219L5.57927 19.7666L6.29513 11.7107L6.0906 10.8504L5.37474 9.99003L3.53397 8.42578L2.71586 6.7051L2 5.92298V5.68835Z" fill="white" stroke="#FCFCFC" stroke-width="3" stroke-linecap="round" stroke-linejoin="round"/>
</svg>
