<svg width="152" height="177" viewBox="0 0 152 177" fill="none" xmlns="http://www.w3.org/2000/svg">
<path d="M14.2555 132.992L14.3722 132.874L19.6246 133.348L21.0252 131.691L20.9085 129.206L16.0063 127.076H13.3218L11.8044 125.301L13.2051 124.709L16.123 124.354L20.6751 121.041L22.0757 120.568L23.0095 119.384L23.2429 118.201L22.4259 113.941V107.551L20.7918 105.185L18.5741 106.25L17.1735 108.38L13.3218 110.746L8.76972 110.628L7.36909 110.391L4.56782 109.445L3.28392 108.616L2 106.25L2.11673 103.528L4.21766 97.4931L8.65299 92.7599L16.5899 86.8434L18.224 84.5951L20.3249 72.762L23.7098 70.987L25.1104 68.9754L25.694 66.7271L28.1451 62.4672L31.8801 59.5089L35.3817 58.4439L38.6498 59.8639L43.2019 62.8222L44.2524 63.2955L46.5868 63.5322L47.5205 62.8222L47.7539 60.9289L47.5205 58.7989L47.8707 56.4323L47.7539 49.5691L48.571 45.3092L50.0883 41.0493L53.9401 39.0376L58.2587 37.8543L58.3754 34.186L64.5615 32.1745L67.8297 32.0561L77.5174 32.7661L83.8202 32.4111L88.2555 33.7127L90.4732 38.2093L92.3407 44.3625L97.3596 46.3742L106.58 38.446L111.483 26.8496L113.117 18.3297L114.284 15.7264L118.019 11.4665L120.353 10.1648L121.521 8.62655L122.338 6.96988L124.672 5.66827L127.123 6.73328L129.224 5.90495L130.858 3.30165L137.978 2L140.662 3.30165L140.079 6.85158L144.514 13.8331L150 19.868L148.366 22.708L146.382 25.0746L145.331 25.5479L142.88 26.1395L141.713 27.2045L140.896 30.3995L143.464 32.1745L143.931 33.7127L142.997 35.606L143.347 38.446L143.931 39.7476L144.164 41.7592L143.347 44.7175L142.18 46.0191L140.662 46.9658L138.562 48.8591L136.577 51.1074L136.461 52.2907L136.811 53.2374L132.726 62.7039L132.142 64.8338L130.975 66.3721L128.64 68.8571L127.473 72.1703L127.24 75.3653L128.524 78.0869L128.874 79.1518L128.524 79.9802L128.057 80.2168L127.707 80.8085V82.2285L125.722 82.7018L124.905 84.9501L123.855 90.7483L123.388 91.9316L122.221 94.0616L121.17 94.7715L119.77 95.2449L116.968 94.6532L115.801 93.5882L113.233 93.3516L108.915 96.9015L106.931 97.2565L104.596 91.34L105.53 88.7367L106.931 86.4884L102.962 83.2934L78.101 83.1751L76.7003 83.8851L75.6499 85.0684V87.435L74.1325 89.3283L73.082 91.8133L69.9306 94.8899L67.1293 98.3215L66.1956 100.215L65.8454 103.173L65.4953 104.475V107.196L65.9622 108.025L66.6625 108.38L68.1798 110.865L69.8139 115.598L67.7129 120.331L66.1956 122.579L65.612 125.301L64.3281 127.431L62.1104 128.733L60.1262 129.324L58.959 131.217L58.4921 133.939L58.0252 135.004L57.4416 135.596L57.2082 136.306L57.6751 137.134L59.5426 138.199L61.6435 140.092L63.511 142.341L63.7445 143.524L64.5615 143.879H65.612L66.6625 144.352L67.7129 145.062L69.347 147.666L69.2303 150.506L59.4259 174.882L59.3092 175L49.0379 161.392L47.1703 159.617L43.6688 158.079L42.1514 156.304L39.817 152.635L36.7823 149.441L34.0978 147.192L27.4448 142.932L24.5268 141.039L19.041 135.832L15.6561 133.702L14.2555 132.992Z" fill="white" stroke="#FCFCFC" stroke-width="3" stroke-linecap="round" stroke-linejoin="round"/>
</svg>
