<svg width="135" height="145" viewBox="0 0 135 145" fill="none" xmlns="http://www.w3.org/2000/svg">
<path d="M68.2663 7.11397L76.6108 6.60449L85.1255 7.45366L92.2778 5.92517L95.6837 4.56647L99.2599 3.7173L99.4302 4.73631L100.282 3.7173L107.604 3.03797L112.713 1H117.992L120.717 5.58548L124.634 8.13298L131.956 7.11397L134 7.45366L130.935 18.1532L127.018 21.7197L122.079 23.9276L116.119 31.9097L115.097 47.5344L113.735 53.139L114.416 59.9323L124.634 87.4453L124.463 92.7102L118.163 94.4085L112.543 97.2957L110.329 103.41L109.137 109.524L109.307 119.374L108.796 122.771L109.137 125.828L108.796 128.545L107.434 129.564L104.028 129.224L102.496 128.545L95.854 124.299L91.0858 122.261L85.977 123.79L80.5275 128.036L76.9513 134.15L76.0999 137.376L74.0563 140.264L69.1178 142.811L67.0743 140.264L61.7951 140.773L59.411 141.452L57.3675 142.471L54.4725 142.302L51.7478 141.452L47.3201 144L43.5736 143.83L42.8925 141.962L42.5519 139.754L41.3598 136.527L39.8271 133.3L35.5698 129.734L29.6095 129.904L24.6709 132.961L19.3918 133.64L18.37 127.866L15.6453 122.261L6.61972 126.677L15.475 79.8028L14.6236 76.2363L12.2394 73.0094L10.0256 68.9335L7.30089 65.3669L3.72472 63.1591L1 60.2719L1.1703 56.3657L3.38414 53.139L4.57619 49.4026L5.25736 45.6662L5.59795 37.1746L7.81178 31.2304L16.4968 33.608L23.1383 28.8527L22.968 25.9655L24.1601 24.7767L25.5224 23.7577L27.9065 20.361L30.6313 17.4738L34.7183 19.0023L38.2945 22.2292L42.8925 29.8717L48.1716 30.8907L50.8963 28.1734L54.6428 25.456L55.324 24.7767L56.1754 23.5879L57.1972 22.5688L57.5378 23.0784L59.7516 21.2102L62.1357 19.6817L64.3495 18.8325L67.2446 18.323L67.9257 17.6437L68.9475 15.9453L69.2881 11.5297L68.2663 7.11397Z" fill="white" stroke="#058D6C" stroke-width="0.902603" stroke-linecap="round" stroke-linejoin="round"/>
</svg>
