<svg width="152" height="180" viewBox="0 0 152 180" fill="none" xmlns="http://www.w3.org/2000/svg">
<path d="M7.57711 55.7059L8.09351 55.2745L12.1214 51.5H13.6706L15.2198 51.7157L21.4166 50.2059L23.2756 48.8039L24.7216 46.9706L28.956 43.3039L30.8151 42.6568L31.3315 41.7941L32.5708 40.7157L34.12 39.7451L37.3217 36.8333L39.0775 35.7549L40.8332 35.2157L42.0726 35L43.3119 35.3235L44.0349 36.1863L44.9644 36.7255L45.7906 37.696L46.7202 37.4804L56.0154 33.1667L59.5269 30.3627L62.6253 28.7451L66.0335 26.049L82.1451 17.5294L83.9009 16.1274L85.4501 14.402L86.1731 9.0098L88.1354 5.01959L91.6469 2.32352L95.4682 2L98.9798 3.61765L101.252 6.63724L103.008 10.3039L106.003 13L109.514 14.9412L118.809 18.3921L124.49 19.7941L126.659 19.6863L130.48 17.2059L131.823 20.4411L129.137 24.4314L126.555 26.049L124.593 28.098L123.354 30.2549L121.598 31.9804L120.669 36.9412L121.701 42.0098L128.621 58.1862L131.41 62.5L134.095 73.6078L136.883 77.9216L138.639 79.647L140.705 81.049L143.597 85.7941L145.869 93.6667L146.798 95.2843L148.141 95.6078L149.38 96.4706L150 99.2745L149.793 102.078L149.174 103.157L148.761 103.588L147.005 103.912L145.662 104.451L144.216 105.422L142.874 106.608L142.667 106.284L142.047 106.931L141.531 107.686L141.118 108.118L138.846 109.843L137.193 111.569L133.992 110.922L131.203 106.069L129.034 104.02L126.555 103.049L124.903 104.882L123.457 107.039L122.631 107.686L121.908 108.441L122.011 110.274L117.983 113.294L112.716 111.784L111.373 115.559L111.167 120.951L110.754 123.324L110.031 125.696L108.688 127.745L108.585 130.225L110.237 132.059L112.406 133.461L114.059 135.725L115.401 138.314L116.847 140.363L117.364 142.627L111.993 172.392L109.618 172.823L107.242 173.039L104.763 173.902L102.595 175.412L97.7404 176.706L88.1354 178L83.3845 177.784L85.5534 174.01L88.4452 169.804L87.5157 164.951L86.9993 163.765L86.7927 162.471V160.853L86.2763 159.451L84.0042 158.157L81.732 156.431L81.5255 154.922V150.392L78.8402 146.402L71.0942 146.186L68.7188 147.265L66.4466 148.559L64.1745 147.157L62.8318 143.167L59.94 140.902L56.7383 143.167L53.5366 151.363L50.4382 154.167L45.9972 154.382L41.7627 152.872L36.1856 147.588L32.6741 140.902L30.0921 137.451L26.8904 134.647L25.3412 130.333L25.238 128.608L28.1298 120.304L27.6134 112.971L24.7216 113.078L23.5855 116.637L22.7592 120.951L20.5904 120.52L19.2477 116.098L18.8346 106.823L16.8723 102.941L9.33287 102.725L2.5164 107.686L2 108.01V107.686L2.10328 107.039L2.92952 105.529L3.23936 104.774L3.5492 99.4902L4.47872 94.3137L4.68527 89.3529L4.89183 87.8431L5.51152 86.4412L6.33775 85.147L6.95743 83.5294V81.8039L6.44103 79.9706L4.89183 76.6274L4.27216 74.7941L3.96232 72.7451L4.0656 71.2353L4.68527 67.7843V67.0294L4.47872 65.5196V64.7647L4.89183 63.6862L6.44103 61.8529L7.06071 60.8823L7.68039 58.0784L7.57711 55.7059Z" fill="white" stroke="#FCFCFC" stroke-width="3" stroke-linecap="round" stroke-linejoin="round"/>
</svg>
