<svg width="166" height="141" viewBox="0 0 166 141" fill="none" xmlns="http://www.w3.org/2000/svg">
<path d="M156.85 60.3188L158.484 63.6232L158.995 67.1956L158.484 71.5717L159.301 76.7516L159.914 78.7164L161.242 80.5919L163.489 87.1115V89.1656L162.876 91.2197L163.898 95.5065L164 98.0965L161.344 102.562L149.087 107.831L131.212 111.671L127.433 115.601L125.696 118.012L121.61 122.299L119.465 123.996L113.95 126.675L108.842 129.891L104.348 133.909L99.343 137.214L93.7251 138.643L87.9029 139L83.715 138.732L80.855 135.16L76.6671 132.838L67.6785 129.444L62.7755 129.355L57.8726 130.605L50.8247 131.766L43.4704 131.677L38.7717 130.516L32.3367 127.568L30.6002 124.711L31.1109 121.406L30.4981 118.638L28.6595 116.316L27.1274 113.011L28.4552 110.153L30.396 108.01L32.2346 105.598L35.0946 104.795L36.9331 103.276L40.2018 99.3468L41.3253 97.0248L41.7339 95.06L40.3039 93.4524L38.261 92.2914L35.8096 92.8273L34.5839 93.2738L33.256 93.4524L28.0466 93.5417L22.9394 92.6486L19.2623 89.3442L18.0366 84.7001L14.2573 82.1995L9.76293 80.324L11.3972 76.3944L11.7037 72.1969L8.74149 68.5352L5.06431 65.1415L2 61.1226V51.3879L4.14503 49.9589L4.34929 48.7086V47.5476L7.51576 43.7073L6.90289 41.3853L7.31146 38.706V33.4368L10.3758 24.4166L8.33289 19.2367L9.76293 14.0567L13.6444 10.2164L16.4023 9.05541L18.343 6.912L18.7516 4.58996L19.4666 2.62517L23.8588 2L28.4552 2.9824L31.2131 6.01891L32.7453 9.76989L33.1538 13.1636L33.0517 24.1486L35.9117 25.8455L44.7982 24.4166L49.8033 26.0241L51.4376 30.6682L51.744 36.2947L51.2333 38.3488L49.8033 40.2243L48.7819 42.1891L48.4754 44.3325L50.314 45.94L53.0718 46.7438L56.5448 50.3162L59.2005 54.4244L64.0012 55.764L74.9306 57.5502L87.1879 57.0144L90.2522 56.4785L93.0101 55.4068L95.2573 51.2093L97.3001 49.691L102.305 47.9941L103.02 45.7614L101.999 43.3501L99.0365 39.5991L100.058 37.9915L101.182 37.3664L103.633 36.9198L141.528 52.3703L154.398 59.4257L156.85 60.3188Z" fill="white" stroke="#FCFCFC" stroke-width="3" stroke-linecap="round" stroke-linejoin="round"/>
</svg>
