<svg width="174" height="148" viewBox="0 0 174 148" fill="none" xmlns="http://www.w3.org/2000/svg">
<path d="M17.1652 36.4615L14.7313 31.9487L14.5441 31.6752L15.4802 31.265L16.7907 30.171L17.7269 29.6239L20.1608 28.9402L21.0969 28.5299L23.7181 26.3419L24.8414 25.2479L25.5903 23.8803L26.152 21.0086L26.7137 18.8206L29.522 14.0342L33.2665 2L37.3854 4.87184L42.0661 5.00856L40.5683 8.70088L36.0749 25.1111L37.011 27.4359L42.0661 27.7095L47.3084 26.7522L53.1124 31.265L51.989 38.6496L49.9295 41.9316L50.1168 45.6239L51.4273 46.7179L54.7974 48.4957L55.7335 49.8632L70.7115 56.9743L90.7445 58.0683L108.531 56.7008L116.02 58.3419L120.513 57.9316L124.819 57.1112L127.628 60.9402L126.879 66L112.275 82.4103L114.148 90.4786L119.952 91.7094L131.559 90.0684L137.176 89.9316L142.606 91.5726L150.095 91.7094L159.456 96.3589L161.328 98.9573L163.762 101.829L165.073 105.795L164.885 108.256L163.949 108.667L163.013 109.624L162.452 110.581L162.826 112.085L163.2 113.316V114.273L162.077 115.504V116.188L163.949 117.966L164.511 118.786L163.949 119.06L161.703 120.974L160.392 121.795L158.707 122.479H157.022L155.711 121.658H154.775L153.465 123.709L150.469 123.573L145.601 121.658L142.044 121.521L138.3 120.974L135.117 119.88L133.432 118.103L132.496 118.513L131.559 118.65L128.938 118.786L128.564 119.06L128.377 119.88L127.815 120.564L126.504 120.974V121.658L127.44 122.068L128.377 122.342L127.628 123.026L129.5 123.573L131.747 124.94L135.678 125.487L136.427 126.308L136.24 127.128L135.304 128.085L128.938 128.769L128.377 128.222L125.194 124.803L116.207 117.692L114.896 115.504V112.769L114.522 111.812H113.586L111.526 112.496H108.531L107.969 112.359L106.846 111.402L104.225 109.897L103.101 108.803L100.855 104.017L99.3568 102.513L99.1696 103.47L98.4207 104.427L97.6718 105.248H97.2973L97.6718 106.342L98.4207 106.479L99.3568 106.615L100.293 107.436L101.604 110.991L103.101 112.496L105.535 113.179L110.029 114.684L113.211 118.239L113.773 121.658L110.029 123.026L111.901 123.983L113.96 125.487L115.271 127.265L114.335 129.179L110.403 132.325L108.156 133.145L105.161 132.325L104.974 133.829L105.161 134.376L102.54 133.556L100.48 132.325L99.7313 130.82L100.293 128.769L98.4207 130L98.0463 131.778L98.7952 133.556L100.293 135.197L96.3612 135.88H95.4251L93.7401 133.419L92.8039 130.82L92.4295 125.624L90.1828 122.752L89.4339 120.974L91.1189 120.154L91.6806 119.333L92.4295 117.419L92.8039 115.231L92.4295 113.863L93.1784 114.137L94.489 114.273L95.4251 114.41L94.489 113.316L91.4934 110.991L90.9317 109.897L90.1828 107.573L89.6212 106.615L87 109.35H86.0638L85.5022 107.573L83.8172 105.248L83.0683 106.889L83.4427 109.35L82.8811 110.171L84.3788 111.949L87.5617 118.103H86.0638L85.1277 117.966L84.3788 117.555L83.8172 116.598L83.2555 117.009L81.9449 117.419L80.6343 115.367L79.1366 113.59L75.0176 110.171L75.3921 111.949L75.9537 113.316L78.0132 115.915L79.1366 117.009L79.6982 117.555L79.8855 118.376L79.3238 119.333L78.3877 119.88L78.0132 120.427L78.9493 121.658L80.4471 120.017L83.0683 119.47L85.5022 120.017L86.8128 121.248L85.315 128.496L85.6894 130.957L90.7445 138.205L92.4295 139.846L92.2423 140.94L91.4934 141.897L89.9956 142.308L88.1233 142.171L86.6256 141.624L84.0044 140.803L84.1916 141.214L84.3788 141.761L84.7533 142.308L81.7577 141.624L78.5749 140.53L75.3921 140.12L72.022 140.94L70.5242 139.709L69.4009 138.068L69.2136 136.154L70.1498 134.376L67.7159 133.556L65.4691 130.82L63.9714 127.538L63.4097 124.803L63.5969 123.026L64.3458 121.932L65.282 121.248L66.4053 120.154L66.967 119.197L67.5286 117.555L67.1542 115.915L64.9075 115.231L61.163 113.726L58.7291 110.308L56.4824 103.88L56.1079 101.282L56.6696 99.9145L57.9802 98.547L59.1035 97.1795L58.7291 96.3589L57.4185 96.2222L55.5463 97.453L54.2357 96.2222L53.8612 95.5384L53.674 94.5812L52.3634 94.9914L51.2401 95.1282L49.9295 94.9914L48.8062 94.5812L49.3679 96.3589L49.7423 98.1368L50.304 99.641L52.1762 100.325L53.4868 101.009L54.4229 102.923L55.5463 106.615L56.1079 110.581L56.8568 112.359L57.9802 113.179L59.8524 113.863L61.7246 115.504L64.3458 118.786L61.163 120.838L60.4141 121.658L60.2269 123.162L63.0352 133.282L64.533 136.427L66.4053 138.068L66.0308 140.393L69.0265 142.308L70.7115 143.812L67.3414 145.179L62.848 145.726L57.2313 146L51.989 145.726L48.8062 144.359L48.4317 142.855L48.8062 136.838L49.555 136.017L49.7423 135.47L49.3679 134.923L48.0573 134.239L47.87 133.829V130.137L48.2445 128.496L51.4273 122.205L51.8018 121.111L51.6145 118.103L49.7423 119.744L48.2445 118.103L43.5639 116.598L39.6322 114.41L37.3854 110.991L36.2621 107.162L27.4626 103.197L15.6674 106.342L11.3612 106.615L9.86346 103.47L10.4251 101.556L9.30175 100.325L7.24232 100.188L5.18284 99.5043L2 96.3589V92.1196L3.68501 88.5641L6.49338 85.4188L6.86785 83.9145L8.36563 81.5897L10.7996 79.6752L9.67622 78.718L8.92733 77.624L8.36563 76.5299L7.99121 75.2992V73.2479L8.55286 70.6496L9.48899 68.4616L10.4251 67.5043L12.8591 66.547L13.9824 64.359L14.7313 59.5727L16.7907 56.2906L19.7863 54.1026L23.3436 52.3248L28.0242 47.9487L28.9603 46.8547L29.3348 45.7607L29.8965 45.0769L32.5176 44.6667L33.2665 44.3931L33.4538 43.9829L34.7643 43.1624L35.1388 42.6154L35.326 41.7949L34.9515 41.3847L34.3899 40.8376L30.2709 37.2821L17.1652 36.4615ZM165.822 130.957L170.502 130.547L172 130.957L171.251 132.325L169.941 133.556L167.507 133.966L162.077 133.829L159.83 133.966L152.903 135.88L150.469 136.017L139.985 135.607L137.738 134.786L136.989 133.419L138.3 131.504L139.61 131.094L146.537 129.453L148.222 130L153.278 131.778L155.711 132.325L158.333 132.051L163.388 131.094L165.822 130.957ZM128.002 130.137L134.555 129.726L136.24 130.137L134.555 131.231L133.619 132.462L133.432 133.966V135.47L132.87 137.111L131.372 138.205L129.5 139.026L127.44 139.709L114.896 141.624L110.029 141.214L108.718 139.983L110.029 138.068L114.522 134.513L117.892 130.957L120.513 128.632L121.075 127.675L121.637 125.897L123.696 126.718L125.755 129.59L128.002 130.137Z" fill="white" stroke="white" stroke-width="3" stroke-linecap="round" stroke-linejoin="round"/>
</svg>
