<svg width="186" height="184" viewBox="0 0 186 184" fill="none" xmlns="http://www.w3.org/2000/svg">
<path d="M64.4 171.115L63.0316 172.104L61.4807 172.203L60.7509 171.016L59.7474 170.323L58.9263 170.62L58.1053 170.917L57.0105 170.224L55.5509 169.828L54.0912 170.224L40.9544 176.656L38.5825 179.922L35.5719 182L32.4702 180.911L30.1895 178.141L30.8281 170.818L33.8386 163.693L36.2105 151.72L35.7544 122.231L38.2175 117.481L43.1439 116.096L47.8877 117.778L50.9895 115.997L51.2632 110.257L49.1649 97.8879L49.4386 95.0181L50.1684 92.1484L50.7158 86.6069L49.1649 81.7581L46.8842 77.4041L47.2491 74.3364L48.0702 71.4667L48.4351 70.3782L48.7088 69.1908V67.7064L48.9825 66.3211L49.986 64.0451L50.1684 61.6701L48.9825 59.9879L47.2491 60.6806L45.8807 62.4618L44.8772 64.5399L42.6877 65.9252L40.1333 65.6284L37.579 64.3419L35.2982 62.6597L32.9263 61.6701L30.3719 60.9775L25.7193 59.0973L21.4316 56.3266L19.3333 54.1495L17.2351 52.2694L14.6807 52.8631L12.3088 54.1495L7.83859 53.3579L2.54736 53.4568L2 53.6548L2.18245 51.8736L2.36491 33.4678L6.83509 33.2699L8.84211 32.8741L10.8491 31.7856L21.7053 20.5047L24.8982 17.9318L28.6386 16.3485L36.9404 14.1715L50.6246 10.5102L52.9053 10.2133L54.4561 11.0049L56.007 12.5882L57.5579 13.3799L61.5719 13.6767L68.5965 12.2914L78.5404 12.6872L80.9123 12.1924L81.6421 11.8955L83.8316 10.2133L84.7439 9.02584L85.9298 6.15613L86.6597 4.96866L88.5754 3.97911L98.793 2L101.074 2.49478L120.596 11.0049L140.211 19.5151L140.849 19.812L141.305 20.3068L141.761 20.5047L142.4 20.3068L146.414 17.8329L147.782 17.536L151.523 18.4266L152.8 18.7235L157.361 21.5932L167.123 31.6866L178.344 45.1446L184 56.4255L180.533 59.3942L175.151 62.7587H168.4L161.649 60.9775L160.554 59.79L159.46 58.4046L158.182 57.9098L156.905 57.514L155.446 57.3161H152.161L151.158 58.3057L150.884 60.1858L150.793 62.2639L149.972 65.4305L148.239 65.9252L145.593 64.7378L140.575 65.4305L136.196 68.1023L135.375 70.2793L136.561 83.4403L134.554 87.5965L132.091 88.8829L129.537 89.5756L113.937 91.2578L110.47 94.2265L107.825 98.7784L104.267 103.726L100.982 106.2L100.526 111.247L101.895 116.887L102.168 122.924L98.793 126.882L77.6281 127.871L67.5018 125.991L64.9474 135.194L64.4 171.115Z" fill="white" stroke="#FCFCFC" stroke-width="3" stroke-linecap="round" stroke-linejoin="round"/>
</svg>
