<svg width="191" height="213" viewBox="0 0 191 213" fill="none" xmlns="http://www.w3.org/2000/svg">
<path d="M159.576 2.68998L165.614 14.0748L167.252 15.6273L169.495 15.9723L171.565 16.6623L175.36 20.0259L177.602 24.8559L178.81 26.7534L179.5 28.8233L179.155 31.152L179.241 33.4807L181.483 37.2757L185.623 39.3456L188.297 42.7093L188.728 47.2805L182.173 60.9078L181.656 65.479L182.001 67.8939L181.397 70.0501L176.998 73.6726L160.094 94.0272L155.867 97.8222L152.245 102.048L151.641 104.118L154.488 111.191L157.161 115.848L158.886 117.746L161.042 117.918L162.767 116.452L164.234 114.641L165.441 112.657L167.597 111.708L169.84 112.743L171.478 114.727L177.861 120.764L180.966 128.354V132.753L181.828 137.152L183.467 140.601L184.243 143.965L184.329 144.051L180.448 147.76L176.395 153.884L175.101 155.091L173.893 155.954L173.376 156.557L173.721 156.902L175.273 157.247L176.222 158.024L179.5 162.767L182.001 165.527L182.863 167.166L182.26 168.632L181.57 168.891L181.052 168.805L180.448 168.46H179.758L178.81 168.718L178.12 169.15L175.36 171.651L174.325 172.341L174.152 172.945L174.066 173.548L173.635 174.066L173.203 174.238H172.168L171.478 174.411L170.788 174.325L170.53 174.411L170.271 174.756L170.012 175.618L169.753 175.963L165.959 178.378L161.991 182.087L160.784 183.726L160.439 185.451L160.87 186.486L162.25 188.124L162.595 189.246L162.422 191.057L161.991 192.782L160.094 197.267L158.541 199.423L156.816 200.372L154.229 200.63L152.504 202.097L151.469 204.253L151.124 207.013L150.693 208.479L149.399 209.687L147.76 210.549L146.121 210.894H145.431L143.965 210.549L143.275 210.463L143.016 210.635L142.326 211.239L141.981 211.412L141.464 211.325L140.774 210.894L140.429 210.722L138.445 210.98L134.392 211.412L132.667 211.153L131.545 210.118L130.338 207.013L129.217 201.924L128.958 199.337L129.13 196.749L128.872 193.644L127.664 190.971L125.422 189.246L119.298 188.124L117.228 185.968L115.934 183.122L115.331 180.103L114.296 177.516L112.139 176.05L106.706 173.98L102.135 171.565L100.41 171.047L99.2884 170.098L98.9434 166.821L97.7359 165.269L96.7872 167.166L95.9247 169.495L95.4072 171.996L94.976 177.085L94.7172 177.257L94.3723 177.343L93.941 177.688L93.1647 178.723L92.6473 179.672L92.3885 180.707L92.3023 182.173L75.4838 182.432L73.6726 181.828L72.2926 180.793L71.6026 179.5L70.6539 174.67L70.1364 173.548L69.2739 173.376L67.7214 174.238L51.6792 187.866L50.213 188.556L48.9192 188.124L47.6255 187.521L46.0731 187.434L44.8656 188.814L39.8631 204.512V204.77L39.0007 205.374H36.6719V205.288L38.2244 198.992L39.0007 187.952L38.7419 183.812L40.8981 172.341L42.8818 168.46L45.5555 165.182L48.833 162.767L51.6792 160.094L52.1105 152.418L54.6979 144.483L51.8517 136.807L45.1243 130.855L39.2594 123.524L31.842 118.349L21.9235 117.228L11.8324 117.487L9.2449 118.004L4.84624 119.988L2.77626 120.506L2 119.039L5.62245 113.606L7.86494 111.708L17.3523 105.326L18.7322 104.205L18.4735 102.393L17.956 101.186L18.1285 100.065L17.8698 96.7009L14.4198 92.3023L14.6786 90.2323L15.3685 88.5073L16.4898 87.0411L18.0423 86.3511L21.3197 87.4723L22.7859 88.2486L24.6834 88.5936L26.6671 89.1973L28.4783 89.456L30.2896 89.3698L32.9633 87.6448L34.7745 84.7986L38.3107 85.0574L43.2269 84.7124L47.9705 83.3324L52.1967 80.1412L55.9916 76.26L60.3041 73.1551L64.9615 70.5676L66.7727 68.9289L70.2227 64.7889L71.6889 62.4603L74.88 58.6653L89.9735 54.9566L100.323 49.868L102.566 45.5555L102.48 43.0543L101.617 38.9144L102.135 36.9307V34.947L100.237 28.6508L99.1159 26.8396L98.5984 24.9421L97.9084 19.9397L98.3397 15.7135L97.9084 12.2636L96.5285 9.07239L100.065 6.74367L108.345 6.48494L116.366 2.77623L120.678 2L125.163 3.12122H129.734L136.634 3.63872L159.576 2.68998Z" fill="white" stroke="#FCFCFC" stroke-width="3" stroke-linecap="round" stroke-linejoin="round"/>
</svg>
