<svg width="179" height="180" viewBox="0 0 179 180" fill="none" xmlns="http://www.w3.org/2000/svg">
<path d="M171.003 21.2657L170.922 21.347L169.538 33.4592L170.596 37.4424L173.364 40.5314L176.62 42.9701L177.19 46.872L175.643 50.6926L172.957 54.5132L166.119 60.9351L167.421 70.3647L164.572 91.5814L166.037 97.8407L165.712 100.605L161.967 108.002L161.641 110.522L163.269 111.01L165.386 110.684L167.828 111.497L169.701 113.611L170.759 115.806L171.085 118.082L164.816 125.886L162.292 130.438L160.583 132.226L159.28 134.259L158.955 139.624L159.28 144.907L157.408 149.216L153.582 152.061L139.01 157.182L135.509 161.084L134.695 166.124L135.102 171.327L134.369 173.522L132.986 175.391L131.032 176.936L128.671 177.586L126.391 177.83L121.995 177.423L121.507 175.554L121.019 171.002L121.833 156.613L121.426 154.5L120.123 152.874L113.692 146.289L110.68 142.225L107.261 138.567L103.353 135.559L94.8866 131.413L86.3387 133.608L83.3267 133.202L81.6985 131.007L83.8151 121.333L83.4894 116.05L76.0813 97.6781L74.209 87.5982L74.1275 83.2085L73.7205 80.526L72.5808 78.0873L71.2782 76.055L70.9526 73.8602L70.8712 71.3402L69.8943 66.3002L69.0803 63.9428L65.5797 60.5287L61.3465 57.6022L60.0439 53.5377L58.9042 44.5959L57.0318 40.5314L55.3223 39.2307L53.2057 39.312L50.9262 38.8243L48.7282 37.7675L46.693 37.6049L42.6226 38.743L39.9361 38.3365L39.3663 36.792L37.7382 30.4514L36.1914 28.0127L33.5863 27.1998L30.8185 27.9315L25.0385 30.2889L22.0264 31.1018L17.7117 32.8901L16.6534 33.703L15.9208 35.4101L14.9439 36.9546L9.57094 39.312L3.70955 37.3611L2 36.9546L12.583 24.3547L14.6996 22.4037L15.8394 21.5908L16.4906 21.4283H16.8163H17.0605L17.5489 20.8592L17.8746 20.2089L18.1188 18.6644L18.363 18.0141L19.4213 16.9573L31.1441 10.3729L33.7491 9.31608L63.7073 2.8129L65.4169 2.48774L71.3597 2L82.5126 3.30064L112.552 3.13806L131.195 7.93416L138.033 10.698L146.581 15.9819L149.43 18.258L150.651 18.827L154.314 19.7212L156.35 19.5586L157.245 19.396L158.548 18.5018L159.525 18.258L162.618 19.396L163.351 19.8025L163.595 20.2089V20.5341L163.758 20.778L164.246 20.8592L164.409 20.6967L164.735 20.3715L165.06 20.0463L165.712 19.9651L166.281 20.3715L166.77 20.9405L167.177 21.1844L167.828 20.8592L168.805 21.1844L171.003 21.2657Z" fill="white" stroke="#FCFCFC" stroke-width="3" stroke-linecap="round" stroke-linejoin="round"/>
</svg>
