<svg width="160" height="171" viewBox="0 0 160 171" fill="none" xmlns="http://www.w3.org/2000/svg">
<path d="M72.8244 151.097L72.172 140.094L66.767 131.423L64.0645 130.397L62.6667 128.159L64.4373 122.751L64.81 117.809L61.4552 114.546L58.8459 113.613L53.6272 112.774L52.4158 113.054L51.2975 113.706L40.5807 114.452L36.3871 113.52L30.2366 110.816L29.2115 108.764L27.5341 107.366L23.5269 107.925L21.8495 107.832L20.3584 107.179L18.7742 107.272L17.5627 108.485L17.0036 110.163L15.6989 110.909L14.1147 111.002L10.3871 111.935L8.89607 111.655L7.77777 110.629L4.88889 109.51L2 110.07L2.55915 76.2222L5.16847 67.5505L15.5125 69.3222L37.1326 68.3897L40.5807 64.66L40.3011 58.9721L38.9032 53.6572L39.3692 48.9017L42.724 46.5706L46.3584 41.9084L49.0609 37.6192L52.6022 34.8219L68.5376 33.2367L71.1469 32.584L73.6631 31.3719L75.7133 27.4556L74.5018 15.0542L75.3405 13.0028L79.8136 10.4852L84.9391 9.8325L87.6416 10.9514L89.4122 10.4852L90.2509 7.5014L90.3441 5.54327L90.6236 3.77164L91.6487 2.8392H95.0036L96.4946 3.02568L97.7993 3.39866L99.1039 3.86488L100.222 5.1703L101.34 6.28922L108.237 7.96762H115.133L120.631 4.79732L124.172 2L125.943 5.1703L130.136 10.019L132.652 12.4433L134.982 14.1217L137.125 14.9609L139.455 15.2406H144.674L145.979 15.0542L144.767 22.6069L147.004 52.445L148.588 56.0815L148.215 60.464L150.172 64.287L151.197 67.9235L151.57 71.6533L152.222 73.7046L152.688 75.9425L152.222 77.8074L150.638 82.0033L149.52 84.2412L150.918 86.0128L153.341 87.1318L157.254 90.3021L158 94.5913L155.857 95.4305L153.62 94.7778L152.409 96.0832L152.036 98.4143L150.358 99.9994L147.376 102.424L146.258 102.983L145.792 102.797L145.233 102.144L144.767 101.958H139.548L135.448 103.916L132.746 116.783L135.168 121.259L134.703 123.683L134.982 126.201L134.33 129.558L133.211 132.728L132.093 134.873L130.602 136.271L125.663 139.442L124.172 141.307L123.427 143.451L122.122 149.885L121.376 151.47L120.444 152.682L119.419 153.615L118.115 154.361L112.244 156.692L111.591 156.972L110.939 157.158L109.821 156.972L109.075 157.065L104.416 158.463H102.832L101.247 158.09L96.5878 156.412L95.0968 156.226L93.6989 156.785L92.8602 157.811L91.5555 160.515L90.7168 161.634L89.9713 162.1L88.2939 162.753L87.5484 163.219L86.9892 164.151L86.896 165.084V166.016L86.6165 166.949L85.5914 167.881L82.3297 169L81.3046 164.245L75.8996 155.107L72.8244 151.097Z" fill="white" stroke="#FCFCFC" stroke-width="3" stroke-linecap="round" stroke-linejoin="round"/>
</svg>
